<svg width="26" height="19" viewBox="0 0 26 19" fill="none" xmlns="http://www.w3.org/2000/svg">
<path d="M23.4619 7.30137L17.1428 2.72661C17.0445 1.94847 16.6426 1.3157 15.9628 0.948009C15.4754 0.687204 14.9024 0.571766 14.3295 0.657276C13.6882 0.747061 13.1922 1.03352 12.8374 1.52092C12.4611 2.05963 12.3927 2.72233 12.3799 3.43634C12.3585 4.55224 12.2174 5.309 11.7856 6.30519C11.4051 7.18594 10.7809 7.97262 9.90013 8.37452C8.02319 9.22106 5.0389 8.64815 2.73014 7.85291C2.26412 7.69899 1.8836 7.72464 1.55011 7.82298C1.238 7.91276 0.985748 8.16929 0.814729 8.48568C0.476966 9.11418 0.742045 9.91369 1.47743 10.5037C2.78572 11.5469 4.50875 12.3764 6.66786 12.7996C8.48494 13.1588 10.0241 13.0049 11.5291 12.4875C12.1704 12.2609 12.7775 11.9232 13.3376 11.5213L13.359 12.5816C13.3932 14.5098 13.4146 15.3906 14.1158 15.8523C14.3338 15.9934 14.5818 16.0875 14.8426 16.1131C15.6763 16.1901 16.2407 15.5146 17.4848 14.0353L17.6558 13.8386L19.2891 16.9597C19.5798 17.5198 19.7423 17.8276 20.0245 18.0628C20.3622 18.3449 20.7941 18.4989 21.2302 18.4989C21.2815 18.4989 21.337 18.4989 21.3926 18.4903C21.7603 18.4604 22.0724 18.2979 22.6282 18.0114C23.1798 17.7207 23.4919 17.5583 23.7313 17.2718C24.0477 16.8913 24.2059 16.4039 24.1546 15.9036C24.1246 15.536 23.9622 15.2324 23.6757 14.6766L22.0425 11.5555L22.3033 11.5255C24.223 11.3503 25.0995 11.2733 25.5099 10.5379C25.6382 10.3199 25.7066 10.0591 25.7151 9.80253C25.7365 8.96026 25.0225 8.43865 23.4619 7.30992V7.30137ZM14.6288 2.78219C14.6288 2.78219 14.6801 2.74798 14.6929 2.73943C14.8896 2.74798 15.5181 3.20546 16.1252 3.65011L17.1855 4.4197L22.6753 8.38735C23.4748 8.96454 24.2999 9.56738 24.3769 9.7555C24.3769 9.79825 24.3641 9.83246 24.3641 9.84101C24.1802 9.99492 23.1627 10.089 22.1836 10.1788L19.9304 10.384L22.4871 15.2837C22.671 15.63 22.8206 15.9122 22.8249 16.0105C22.8377 16.1516 22.795 16.2927 22.7052 16.3996C22.6325 16.4851 22.3589 16.6262 22.004 16.81C21.6449 17.0024 21.3841 17.135 21.2772 17.1478C21.1361 17.1564 20.995 17.1136 20.8881 17.0195C20.8112 16.9554 20.6615 16.6818 20.4862 16.3269L17.9209 11.4272L16.4587 13.1631C15.8302 13.9198 15.1718 14.6937 14.9751 14.7578C14.9409 14.7578 14.9024 14.745 14.8896 14.745C14.7485 14.5483 14.7271 13.5307 14.7058 12.5431L14.663 10.3541L14.5561 4.46245C14.5433 3.72279 14.5219 2.94893 14.6288 2.77364V2.78219Z" fill="#6C6C6C"/>
</svg>
