<svg width="22" height="18" viewBox="0 0 22 18" fill="none" xmlns="http://www.w3.org/2000/svg">
<path d="M20.5384 4.19355L20.5298 4.185C20.316 3.89427 20.0724 3.64201 19.7731 3.42397C19.1574 2.98787 18.4519 2.86388 17.7679 2.8083C17.366 2.78692 17.0539 2.77409 16.498 2.77409C16.1945 2.77409 16.0833 2.70996 15.9679 2.45771C15.7755 1.71805 15.023 0.431129 13.347 0.431129H8.18223C6.63023 0.431129 5.89913 1.4829 5.71529 2.08574L5.58275 2.41068C5.46303 2.70569 5.34759 2.77837 5.03975 2.77837C4.51814 2.77837 4.22741 2.7912 3.87255 2.81258H3.75284C3.07303 2.86816 2.36758 2.98787 1.75191 3.43252C1.46118 3.64629 1.2132 3.88999 0.990878 4.19355C0.341005 5.0914 0.341003 6.20731 0.341003 8.43056V11.8125C0.341003 14.0314 0.341001 15.1388 0.999425 16.0495C1.23885 16.3744 1.49539 16.6266 1.76047 16.8062C2.66259 17.4646 3.77849 17.4646 5.99747 17.4646H15.5232C17.7465 17.4646 18.8624 17.4646 19.7474 16.8233C20.0381 16.6266 20.2904 16.3787 20.5298 16.0452C21.1797 15.1431 21.1797 14.0314 21.1797 11.8125V8.43056C21.1797 6.20731 21.1797 5.0914 20.5298 4.19355H20.5384ZM19.8457 11.8125C19.8457 13.7407 19.8457 14.7027 19.4481 15.2499C19.2985 15.4466 19.1531 15.6048 18.9821 15.716C18.4306 16.1179 17.4643 16.1179 15.5275 16.1179H6.00174C4.07349 16.1179 3.09869 16.1179 2.53433 15.7074C2.38041 15.6005 2.23076 15.4466 2.08967 15.2499C1.68778 14.6984 1.68778 13.7364 1.68778 11.8125V8.43056C1.68778 6.49376 1.68778 5.52751 2.0854 4.98452C2.21794 4.80067 2.37613 4.64676 2.55998 4.50994C2.83361 4.30472 3.20985 4.20638 3.8811 4.1508H3.95378C4.3001 4.12942 4.56946 4.11659 5.04831 4.11659C5.90341 4.11659 6.50197 3.7147 6.83546 2.92374L7.00648 2.49191C7.04923 2.3722 7.28011 1.76936 8.19506 1.76936H13.3598C14.4031 1.76936 14.6596 2.70996 14.681 2.8083L14.7237 2.92801C15.0487 3.71042 15.6558 4.11659 16.5109 4.11659C17.0282 4.11659 17.3147 4.12942 17.6781 4.1508C18.3493 4.20638 18.717 4.30472 18.9906 4.50994C19.1745 4.64248 19.3284 4.80067 19.4652 4.97597C19.8629 5.5275 19.8629 6.50231 19.8629 8.43056V11.8125H19.8457Z" fill="#6C6C6C"/>
<path d="M17.7593 7.28902C17.1693 7.28902 16.6819 6.80161 16.6819 6.19877C16.6819 5.59593 17.1693 5.12135 17.7593 5.12135C18.3493 5.12135 18.8367 5.60875 18.8367 6.19877C18.8367 6.78878 18.3621 7.28902 17.7593 7.28902Z" fill="#6C6C6C"/>
<path d="M10.9399 6.04913C8.60974 6.04913 6.70715 7.94318 6.70715 10.2819C6.70715 12.6206 8.60546 14.5146 10.9399 14.5146C13.2743 14.5146 15.1726 12.6163 15.1726 10.2819C15.1726 7.94745 13.2786 6.04913 10.9399 6.04913ZM10.9399 13.1721C9.3494 13.1721 8.04965 11.8723 8.04965 10.2819C8.04965 8.69138 9.3494 7.39163 10.9399 7.39163C12.5304 7.39163 13.8301 8.68283 13.8301 10.2819C13.8301 11.8809 12.5389 13.1721 10.9399 13.1721Z" fill="#6C6C6C"/>
</svg>
