<svg width="17" height="19" viewBox="0 0 17 19" fill="none" xmlns="http://www.w3.org/2000/svg">
<path d="M15.9084 5.60068C16.7378 4.77123 16.8789 4.09143 16.4514 3.00118L15.8314 1.4278C15.5193 0.63684 15.0661 0.170812 14.4804 0.0510987C13.9203 -0.0686148 13.3388 0.157989 12.7574 0.709526V0.700974L11.9407 1.51759L11.6243 1.83397L10.3545 3.11234L7.07524 6.38309C6.89139 6.39164 6.71183 6.41302 6.54508 6.46005C5.66434 6.71658 4.18074 8.14886 2.33373 10.0001C1.31617 11.022 0.721874 11.9669 0.512375 12.8775C0.32853 13.66 0.354188 14.3996 0.59789 15.2077C0.81594 15.9174 1.20074 16.5288 1.80358 17.1402C2.4107 17.7388 3.02209 18.1193 3.73609 18.3416C4.20212 18.4827 4.62966 18.5511 5.05721 18.5511C5.38643 18.5511 5.71564 18.5084 6.05767 18.4271C6.97263 18.2219 7.91323 17.6233 8.93934 16.6015C9.10609 16.4347 9.18305 16.1996 9.14457 15.9687L8.84956 14.1003L8.96501 13.9849C10.3417 12.6082 10.9146 12.0353 11.1797 11.0861C11.2524 10.821 11.278 10.5431 11.2567 10.2567L12.0049 9.51274L12.4923 9.02534L12.8044 8.7175L12.8942 8.62772L14.7455 6.77215L15.9084 5.60922V5.60068ZM13.7193 1.8126C14.0186 1.51332 14.1725 1.48766 14.1725 1.48339C14.1854 1.49194 14.3136 1.57745 14.4676 1.96652L15.0875 3.53989C15.3013 4.08288 15.2884 4.15129 14.8737 4.56601L14.3008 5.13892L13.1806 2.35558L13.7236 1.8126H13.7193ZM13.4543 5.98119L12.4324 7.00731L11.3165 4.22397L12.3768 3.15937L13.4543 5.98119ZM9.76879 10.6842C9.61059 11.2443 9.26001 11.612 7.93034 12.9417L7.55409 13.3179C7.38735 13.4847 7.31039 13.7198 7.34886 13.9507L7.64387 15.8105C6.93414 16.4732 6.30992 16.8623 5.73273 16.9906C5.20257 17.1188 4.73227 17.1017 4.17219 16.9307C3.68906 16.7811 3.27861 16.5203 2.84678 16.0927C2.41496 15.6566 2.15416 15.2462 2.00451 14.7673C1.83349 14.2072 1.8164 13.7369 1.94466 13.1939C2.09003 12.5612 2.57316 11.8301 3.37695 11.0177C4.2748 10.1199 6.36979 8.02059 6.95553 7.85385C6.99828 7.84102 7.07951 7.82393 7.19067 7.82393C7.22915 7.82393 7.26764 7.82392 7.31467 7.8282C7.31894 7.8282 7.3275 7.8282 7.33177 7.8282C7.43438 7.84103 7.54127 7.86668 7.64815 7.90088C7.66098 7.90516 7.67808 7.90944 7.69091 7.91799C7.79352 7.95647 7.9004 8.00777 8.00729 8.06763C8.02867 8.08045 8.05432 8.09328 8.0757 8.11038C8.18686 8.17879 8.29803 8.25575 8.41347 8.34554C8.42202 8.34981 8.42629 8.35836 8.43484 8.36263C8.5631 8.46525 8.69137 8.58068 8.81963 8.70895L8.90942 8.80301C9.51227 9.40585 9.71321 9.86333 9.77735 10.1412V10.1626C9.82438 10.3507 9.82437 10.5218 9.78161 10.6757L9.76879 10.6842ZM10.7094 8.72605C10.7094 8.72605 10.7008 8.71322 10.6966 8.70895C10.5982 8.55931 10.4914 8.40967 10.3674 8.26003C10.3674 8.26003 10.3631 8.25575 10.3588 8.25147C10.2348 8.09756 10.0937 7.94791 9.94408 7.79399L9.8543 7.69566C9.76879 7.61015 9.68328 7.53319 9.60205 7.45623C9.5935 7.44768 9.58067 7.43913 9.57212 7.4263C9.52509 7.38782 9.48233 7.34935 9.4353 7.31087C9.37972 7.26384 9.32841 7.21681 9.27283 7.17405C9.23863 7.1484 9.20443 7.12702 9.17022 7.10137C9.10609 7.05434 9.04196 7.00731 8.97355 6.96028C8.93935 6.9389 8.90515 6.91752 8.87095 6.89615C8.81964 6.86194 8.76833 6.82774 8.71702 6.80209L10.4486 5.07479L11.5346 7.88806L10.7094 8.71323V8.72605Z" fill="#6C6C6C"/>
</svg>
