<svg width="23" height="22" viewBox="0 0 23 22" fill="none" xmlns="http://www.w3.org/2000/svg">
<path d="M22.8975 8.88599C22.8807 8.85658 22.8681 8.82717 22.8471 8.79776C22.8177 8.74734 22.7799 8.70113 22.7337 8.66332C22.7337 8.66332 22.7253 8.66332 22.7253 8.65491C22.6875 8.6171 22.6455 8.58769 22.5908 8.56668C22.5446 8.54568 22.5026 8.52047 22.4564 8.51627C22.3976 8.49526 22.3304 8.48686 22.2631 8.48686H22.2463L15.1881 8.60029L14.6965 9.31453L13.7176 10.764L13.7008 10.7808L13.1882 11.537L13.1798 11.5454C15.52 11.3312 20.8011 10.7598 22.4354 9.8733C22.469 9.8565 22.7631 9.68004 22.8429 9.57501C22.8639 9.5372 22.8891 9.50779 22.9017 9.46998C22.9227 9.42376 22.9311 9.38174 22.9479 9.33553C22.9563 9.28931 22.9647 9.2473 22.9647 9.19269C22.9647 9.08765 22.9353 8.98262 22.8891 8.89019L22.8975 8.88599Z" fill="#6C6C6C"/>
<path d="M6.17622 8.74315C6.05018 8.41545 5.81069 8.07514 5.41997 7.76424C4.92421 7.36931 4.2688 7.18445 3.50416 7.19286C2.73951 7.20966 2.10092 7.42392 1.60936 7.83145C0.886727 8.43225 0.739672 9.14648 0.748074 9.63803C0.756477 10.1296 0.924532 10.8354 1.66817 11.4194C2.15973 11.7975 2.77312 11.9908 3.51676 11.9908H3.58398C4.34863 11.974 4.98724 11.7681 5.47879 11.3606C5.83591 11.0623 6.05018 10.7346 6.17622 10.4237L8.27689 10.3859H8.3063C8.56679 10.3859 8.76845 10.4363 8.9449 10.5203C8.96591 10.2682 9.02053 10.0288 9.08775 9.80609C9.13396 9.66325 9.18438 9.533 9.2432 9.39856C9.34823 9.15908 9.48267 8.92381 9.63812 8.68433L6.17622 8.74315ZM4.5713 10.2766C4.33182 10.4699 3.99992 10.5749 3.56298 10.5791C3.10924 10.5959 2.78153 10.4993 2.53785 10.3061C2.28577 10.1044 2.16813 9.89011 2.16813 9.61703C2.15973 9.34394 2.27317 9.12547 2.52525 8.91961C2.75632 8.71794 3.09662 8.61711 3.52936 8.60871C3.98311 8.6003 4.31081 8.68853 4.55449 8.88179C4.81498 9.08346 4.92422 9.29773 4.93262 9.57082C4.93262 9.84391 4.82759 10.0624 4.57551 10.2766H4.5713Z" fill="#6C6C6C"/>
<path d="M18.776 1.22695C18.6332 0.995873 18.3685 0.857224 18.0996 0.886633C16.8014 1.00427 11.348 7.74323 10.6044 8.67173C10.5456 8.73895 10.5246 8.77676 10.5162 8.78517C10.3607 8.99943 10.2347 9.2011 10.1296 9.38596C9.95738 9.67585 9.84815 9.94474 9.78933 10.2178C9.73051 10.4321 9.7095 10.6548 9.7095 10.8942C9.7095 10.9447 9.7095 10.9993 9.7179 11.0497C9.7179 11.1463 9.7347 11.2598 9.7389 11.369C9.78511 11.7933 9.81453 12.1336 9.48683 12.6252L8.30625 14.3562C8.04577 14.3057 7.74746 14.2973 7.41556 14.3646C7.32733 14.3814 7.2391 14.4024 7.14247 14.4318C6.53328 14.6166 6.00391 15.0326 5.57538 15.667C5.13844 16.3056 4.94937 16.9442 5.00399 17.5828C5.07961 18.5281 5.57538 19.0533 5.98291 19.3305L6.08794 19.4062H6.10474C6.37783 19.5784 6.76015 19.7171 7.2349 19.7171C7.41136 19.7171 7.60042 19.7003 7.80629 19.6498C7.8357 19.8515 7.91132 20.049 8.02896 20.2422C8.52052 21.0615 9.73891 21.3178 10.4868 20.696C10.6128 20.5994 10.6632 20.4229 10.6002 20.2716C10.4237 19.9145 10.1254 20.1456 9.82714 20.1456C9.46162 20.1624 9.18853 19.9986 9.05409 19.6625C8.95746 19.2927 9.10451 18.9944 9.31457 18.6835C9.31457 18.6751 9.33137 18.6667 9.33557 18.6541C9.35658 18.6247 9.49943 18.4399 9.54564 18.3726C9.97838 17.734 10.1716 17.087 10.117 16.4568C10.1086 16.3308 10.0876 16.2174 10.0582 16.1081C9.99098 15.772 9.86495 15.5073 9.7095 15.2888L12.1967 11.6337L12.7009 10.8816L12.7093 10.8732L13.2134 10.1296L13.2302 10.1086L13.2764 10.0498V10.0414L13.768 9.32714L14.2512 8.61291L18.7592 1.98739C18.9146 1.76472 18.923 1.46642 18.7886 1.23115L18.776 1.22695ZM8.36086 17.5702C8.11718 17.9357 7.8483 18.1584 7.55 18.2466C7.2391 18.3348 6.99963 18.3138 6.76856 18.1584L6.74754 18.1416C6.53327 17.9861 6.42825 17.776 6.39884 17.4567V17.3769C6.39884 17.0954 6.50387 16.7971 6.73494 16.4568C6.97862 16.0997 7.25592 15.8686 7.54581 15.7804C7.56682 15.772 7.59622 15.7636 7.62143 15.7636C7.89452 15.688 8.11719 15.7258 8.32725 15.8686C8.53732 16.0115 8.64656 16.1963 8.68437 16.461C8.69277 16.4904 8.70118 16.5282 8.70118 16.5661C8.73059 16.8686 8.62135 17.2047 8.36506 17.5702H8.36086ZM11.4867 10.6254C11.1968 10.6254 10.9573 10.3859 10.9573 10.096C10.9573 9.8061 11.1968 9.56662 11.4867 9.56662C11.7766 9.56662 12.016 9.8061 12.016 10.096C12.016 10.3859 11.7766 10.6254 11.4867 10.6254Z" fill="#6C6C6C"/>
</svg>
