<svg width="20" height="21" viewBox="0 0 20 21" fill="none" xmlns="http://www.w3.org/2000/svg">
<path d="M19.8153 9.27672C19.7691 8.78937 19.6472 8.41965 19.4414 8.09195C19.2355 7.77264 18.9708 7.50795 18.6431 7.29369C18.3238 7.08782 17.9457 6.97439 17.4583 6.92817C17.1012 6.89036 16.6769 6.89036 16.1433 6.89036H13.8872V4.62163C13.8872 4.09646 13.8872 3.68053 13.8494 3.31501C13.8031 2.82765 13.6813 2.45794 13.4754 2.13023C13.278 1.81934 12.9965 1.53784 12.6856 1.34038C12.3579 1.13451 11.9882 1.01268 11.5008 0.96646C11.1353 0.928648 10.7194 0.92865 10.1732 0.92865C9.62701 0.92865 9.22368 0.928648 8.86657 0.96646C8.37921 1.01268 8.00109 1.13451 7.68179 1.34038C7.36249 1.53784 7.0894 1.81934 6.88354 2.13023C6.67767 2.45794 6.56423 2.83606 6.50961 3.32342C6.4802 3.68053 6.4802 4.09647 6.4802 4.63844V6.89456H4.21148C3.67791 6.89456 3.26198 6.89456 2.90486 6.93237C2.41751 6.97858 2.04778 7.09202 1.72008 7.30629C1.40078 7.51216 1.12769 7.77684 0.921826 8.09614C0.71596 8.42385 0.602519 8.79357 0.556304 9.28093C0.518492 9.63804 0.518494 10.054 0.518494 10.6085C0.518494 11.1631 0.518492 11.5581 0.556304 11.9152C0.602519 12.4025 0.715955 12.7722 0.930224 13.0999C1.12769 13.4193 1.40078 13.6923 1.72008 13.8898C2.04778 14.1041 2.41751 14.2175 2.90486 14.2637C3.26198 14.3015 3.67791 14.3015 4.21148 14.3015H6.4802V16.5661C6.4802 17.0996 6.4802 17.5156 6.50961 17.8811C6.56423 18.36 6.67767 18.7382 6.88354 19.0659C7.0894 19.3768 7.36249 19.6582 7.68179 19.8557C8.00109 20.0616 8.37921 20.1834 8.86657 20.2296C9.22368 20.2674 9.63962 20.2674 10.19 20.2674C10.7404 20.2674 11.1395 20.2674 11.505 20.2296C11.9924 20.1834 12.3621 20.0616 12.6898 19.8557C13.0091 19.6498 13.2738 19.3852 13.4796 19.0659C13.6855 18.7382 13.8074 18.3684 13.8536 17.8811C13.8914 17.5156 13.8914 17.0996 13.8914 16.5577V14.3015H16.1559C16.6895 14.3015 17.1054 14.3015 17.4625 14.2637C17.9499 14.2175 18.328 14.1041 18.6557 13.8898C18.9666 13.6923 19.2397 13.4108 19.4456 13.0999C19.6514 12.7722 19.7733 12.4025 19.8195 11.9152C19.8489 11.5581 19.8489 11.1421 19.8489 10.5875C19.8489 10.033 19.8489 9.63804 19.8195 9.28093L19.8153 9.27672ZM18.37 11.7681C18.3406 12.0958 18.2776 12.2303 18.2188 12.3227C18.1347 12.4613 18.0129 12.579 17.8701 12.6714C17.786 12.726 17.6516 12.7932 17.3239 12.8227C17.034 12.8521 16.6475 12.8521 16.1559 12.8521H13.2234L12.4503 12.9067V16.5535C12.4503 17.045 12.4503 17.4399 12.4209 17.7298C12.3831 18.0575 12.3243 18.192 12.2697 18.276C12.1772 18.4188 12.0554 18.5407 11.9125 18.6331C11.8285 18.6877 11.6941 18.755 11.3664 18.7844C11.0765 18.8054 10.69 18.8054 10.1816 18.8054C9.67323 18.8054 9.29931 18.8054 9.01362 18.7844C8.69431 18.755 8.55147 18.6877 8.46744 18.6331C8.32879 18.5407 8.21116 18.4188 8.11873 18.276C8.06411 18.192 7.99689 18.0575 7.96748 17.7298C7.93807 17.4399 7.93807 17.0534 7.93807 16.5619V13.6293C7.93807 13.205 7.58936 12.8563 7.16503 12.8563H4.22408C3.73673 12.8563 3.3502 12.8563 3.06031 12.8269C2.7326 12.7975 2.59816 12.7302 2.50573 12.6756C2.36708 12.5832 2.24945 12.4613 2.15702 12.3269C2.1024 12.2345 2.03518 12.1 2.00577 11.7723C1.97636 11.4824 1.97636 11.0959 1.97636 10.5875C1.97636 10.0792 1.97636 9.71366 2.00577 9.42377C2.03518 9.09607 2.1024 8.95322 2.15702 8.86919C2.24945 8.73055 2.37129 8.61291 2.50573 8.52048C2.59816 8.46587 2.7326 8.39864 3.06031 8.36924C3.3502 8.33983 3.73673 8.33982 4.22408 8.33982H7.16503C7.58936 8.33982 7.93807 7.99111 7.93807 7.56678V4.64264C7.93807 4.14268 7.93807 3.75615 7.96748 3.46626C7.99689 3.13855 8.06411 3.00412 8.11873 2.92009C8.21116 2.77724 8.333 2.6554 8.46744 2.56297C8.55147 2.50836 8.69431 2.44113 9.01362 2.41172C9.30351 2.39072 9.69003 2.39072 10.1984 2.39072C10.7068 2.39072 11.0807 2.39072 11.3664 2.41172C11.6941 2.44113 11.8285 2.50836 11.9125 2.56297C12.0554 2.6554 12.1772 2.77724 12.2697 2.92009C12.3243 3.00412 12.3831 3.13855 12.4209 3.46626C12.4503 3.75615 12.4503 4.14268 12.4503 4.63003V7.57098L12.5049 8.34402H16.1517C16.6433 8.34402 17.0382 8.34403 17.3281 8.37343C17.6558 8.40284 17.7902 8.47007 17.8743 8.52468C18.0171 8.61711 18.1389 8.73895 18.223 8.8734C18.2818 8.95742 18.3448 9.10026 18.3742 9.42797C18.4036 9.71786 18.4036 10.1044 18.4036 10.6128C18.4036 11.1211 18.4036 11.4866 18.3742 11.7765L18.37 11.7681Z" fill="#6C6C6C"/>
</svg>
