<svg width="22" height="20" viewBox="0 0 22 20" fill="none" xmlns="http://www.w3.org/2000/svg">
<path d="M21.1991 10.7975C21.1991 9.28084 19.9681 8.04565 18.4556 8.04565C16.9431 8.04565 15.7121 9.27664 15.7121 10.7975C15.7121 12.0369 16.5398 13.0873 17.6741 13.4192C17.5397 15.1081 16.7498 18.3263 12.7124 18.3263C8.67486 18.3263 7.89761 15.1375 7.75477 13.4444C11.015 12.8562 13.8215 8.68425 13.8215 4.13C13.8215 3.01244 13.5064 2.15957 12.8888 1.59658C12.4057 1.15544 11.8133 0.911766 10.9352 0.802531C10.7041 0.395 10.263 0.126114 9.76721 0.126114C9.01517 0.126114 8.40597 0.735311 8.40597 1.48735C8.40597 2.23939 9.01517 2.84858 9.76721 2.84858C10.2042 2.84858 10.5949 2.63852 10.8428 2.31081C11.4309 2.39484 11.6956 2.55029 11.8721 2.70994C12.1662 2.97883 12.3174 3.45778 12.3174 4.13419C12.3174 8.18849 9.721 12.0201 6.97332 12.0201C4.22564 12.0201 1.6292 8.18849 1.6292 4.13419C1.6292 3.45778 1.78045 2.97883 2.07455 2.70994C2.2552 2.54609 2.51989 2.39484 3.10808 2.31081C3.35176 2.63852 3.74668 2.84858 4.18362 2.84858C4.92726 2.84858 5.53646 2.23939 5.53646 1.48735C5.53646 0.735311 4.92726 0.126114 4.18362 0.126114C3.68786 0.126114 3.24672 0.395 3.01565 0.802531C2.13757 0.911766 1.54098 1.15544 1.05782 1.59658C0.440223 2.16377 0.125122 3.01664 0.125122 4.13C0.125122 8.70946 2.96103 12.9066 6.24648 13.457C6.46915 16.5366 8.24632 19.8304 12.7124 19.8304C17.1784 19.8304 18.964 16.5198 19.1782 13.436C20.342 13.1209 21.1949 12.0537 21.1949 10.7975H21.1991ZM18.4598 12.0369C17.7708 12.0369 17.2204 11.4739 17.2204 10.7975C17.2204 10.1211 17.775 9.55813 18.4598 9.55813C19.1446 9.55813 19.6992 10.1127 19.6992 10.7975C19.6992 11.4823 19.1362 12.0369 18.4598 12.0369Z" fill="#6C6C6C"/>
</svg>
