<svg width="16" height="22" viewBox="0 0 16 22" fill="none" xmlns="http://www.w3.org/2000/svg">
<path d="M13.435 1.63457L13.3299 1.57995C11.3007 0.529616 9.98985 0.874125 9.23781 1.34888C8.29251 1.98328 7.88077 2.76053 6.78842 4.86541L6.53214 5.36957C5.4398 7.46604 5.03226 8.25169 5.06167 9.39866C5.09528 10.1843 5.46919 11.2767 6.98587 12.2472L5.05747 15.9528C4.78438 15.8645 4.50288 15.8183 4.20879 15.8183H4.16678C3.22148 15.8267 2.51984 16.4275 2.18374 16.9737C1.92745 17.3896 1.83922 17.8308 1.78881 18.0954L1.77201 18.1753L1.7006 18.2089C1.52414 18.2341 1.09981 18.3055 0.88974 18.4021C0.591445 18.545 0.385573 18.7887 0.305747 19.0744C0.242727 19.2844 0.209119 19.6205 0.440193 20.0365C1.28886 21.57 3.14584 21.7128 3.80965 21.7128H3.8811C4.60373 21.7044 5.19611 21.5111 5.75909 21.112C6.69599 20.4398 7.17073 19.5155 7.09091 18.503C7.03629 17.8518 6.75481 17.251 6.33887 16.7972L8.33872 12.953C9.05295 13.2429 9.65375 13.3437 10.1579 13.3437C10.9184 13.3437 11.4561 13.1042 11.788 12.8942C12.7501 12.2682 13.1619 11.4825 14.2458 9.37765L14.5105 8.87349C15.6028 6.77702 16.0104 5.99137 15.9726 4.8528C15.9473 4.13017 15.586 2.75633 13.4265 1.63457H13.435ZM4.88102 19.8768C4.57432 20.0953 4.2802 20.1835 3.86007 20.1919C3.56177 20.2003 2.6795 20.1667 2.11232 19.6878C2.57027 19.5659 3.06603 19.213 3.24248 18.6122C3.25929 18.566 3.27609 18.482 3.28869 18.3937C3.33071 18.2089 3.37692 17.961 3.49876 17.7761C3.50716 17.7509 3.75506 17.3518 4.1962 17.3434C4.94404 17.3098 5.52801 18.0156 5.57843 18.6374C5.62465 19.2172 5.22553 19.6331 4.88102 19.881V19.8768ZM13.1703 8.17606L12.9056 8.68023C11.8636 10.6801 11.5654 11.2262 10.9646 11.617C10.6453 11.827 9.88061 12.0665 8.41855 11.3019L8.3051 11.2472C7.22115 10.6843 6.61196 10.0037 6.57835 9.33564C6.56155 8.62141 6.83465 8.06683 7.87658 6.06279L8.14124 5.55863C9.18318 3.55038 9.48148 3.01261 10.0655 2.63029C10.2839 2.48744 10.557 2.41182 10.8679 2.41182C11.3637 2.41182 11.9603 2.58828 12.6157 2.93279L12.7291 2.98741C14.1996 3.74785 14.4391 4.5125 14.4475 4.89902C14.4727 5.61325 14.1996 6.16782 13.1619 8.17186L13.1703 8.17606Z" fill="#6C6C6C"/>
</svg>
