<svg width="314" height="32" viewBox="0 0 314 32" fill="none" xmlns="http://www.w3.org/2000/svg">
<g clip-path="url(#clip0_0_25)">
<path d="M3.90933 18.6702V28.1508H2.20666V21.5144C2.07045 21.6295 1.92061 21.7378 1.75035 21.8259C1.58008 21.9139 1.403 21.9884 1.21911 22.0494C1.03522 22.1103 0.837715 22.1577 0.626583 22.1916C0.415452 22.2254 0.211131 22.239 0 22.2322V20.8507C0.333724 20.8304 0.647015 20.7695 0.926254 20.6611C1.20549 20.5528 1.45068 20.4038 1.66181 20.2142C1.87294 20.0245 2.02959 19.7943 2.13856 19.5302C2.24753 19.2661 2.30201 18.9749 2.30201 18.6702H3.90933Z" fill="#B9B9B9"/>
<path d="M7.75735 27.9613C7.30103 27.7378 6.90601 27.4128 6.5791 26.9861C6.25219 26.5595 6.00019 26.0448 5.82311 25.4421C5.64603 24.8394 5.5575 24.1622 5.5575 23.4106C5.5575 22.6589 5.64603 21.9817 5.82311 21.379C6.00019 20.7763 6.25219 20.2616 6.5791 19.835C6.90601 19.4084 7.30103 19.0833 7.75735 18.8598C8.21366 18.6364 8.73809 18.5212 9.317 18.5212C9.8959 18.5212 10.4203 18.6364 10.8766 18.8598C11.333 19.0833 11.728 19.4084 12.0549 19.835C12.3818 20.2616 12.6338 20.7763 12.8109 21.379C12.988 21.9817 13.0765 22.6589 13.0765 23.4106C13.0765 24.1622 12.988 24.8327 12.8109 25.4354C12.6338 26.0381 12.3818 26.546 12.0617 26.9726C11.7416 27.3992 11.3466 27.7243 10.8835 27.9545C10.4203 28.1848 9.8959 28.2999 9.317 28.2999C8.73809 28.2999 8.21366 28.1848 7.75735 27.9613ZM10.1683 26.5121C10.4203 26.3699 10.6246 26.1532 10.7949 25.8688C10.9652 25.5843 11.0946 25.2322 11.1831 24.8191C11.2717 24.406 11.3193 23.932 11.3193 23.4106C11.3193 22.8891 11.2717 22.4083 11.1831 21.9952C11.0946 21.5821 10.9584 21.2368 10.7881 20.9524C10.6178 20.6679 10.4067 20.4512 10.1547 20.309C9.90271 20.1668 9.62348 20.0923 9.317 20.0923C9.01051 20.0923 8.71766 20.1668 8.46566 20.309C8.21366 20.4512 8.00934 20.6679 7.83908 20.9524C7.66881 21.2368 7.53941 21.5821 7.45087 21.9952C7.36233 22.4083 7.31465 22.8756 7.31465 23.4106C7.31465 23.9455 7.36233 24.4128 7.45087 24.8259C7.53941 25.239 7.66881 25.5843 7.83908 25.8688C8.00934 26.1532 8.21366 26.3699 8.46566 26.5121C8.71766 26.6543 8.99689 26.7288 9.317 26.7288C9.6371 26.7288 9.91634 26.6543 10.1683 26.5121Z" fill="#B9B9B9"/>
<path d="M16.3115 27.9613C15.8552 27.7378 15.4602 27.4128 15.1333 26.9861C14.8064 26.5595 14.5544 26.0448 14.3773 25.4421C14.2002 24.8394 14.1117 24.1622 14.1117 23.4106C14.1117 22.6589 14.2002 21.9817 14.3773 21.379C14.5544 20.7763 14.8064 20.2616 15.1333 19.835C15.4602 19.4084 15.8552 19.0833 16.3115 18.8598C16.7679 18.6364 17.2923 18.5212 17.8712 18.5212C18.4501 18.5212 18.9745 18.6364 19.4308 18.8598C19.8872 19.0833 20.2822 19.4084 20.6091 19.835C20.936 20.2616 21.188 20.7763 21.3651 21.379C21.5422 21.9817 21.6307 22.6589 21.6307 23.4106C21.6307 24.1622 21.5422 24.8327 21.3651 25.4354C21.188 26.0381 20.936 26.546 20.6159 26.9726C20.2958 27.3992 19.9008 27.7243 19.4377 27.9545C18.9745 28.1848 18.4501 28.2999 17.8712 28.2999C17.2923 28.2999 16.7679 28.1848 16.3115 27.9613ZM18.7225 26.5121C18.9745 26.3699 19.1788 26.1532 19.3491 25.8688C19.5194 25.5843 19.6488 25.2322 19.7373 24.8191C19.8259 24.406 19.8735 23.932 19.8735 23.4106C19.8735 22.8891 19.8259 22.4083 19.7373 21.9952C19.6488 21.5821 19.5126 21.2368 19.3423 20.9524C19.172 20.6679 18.9609 20.4512 18.7089 20.309C18.4569 20.1668 18.1777 20.0923 17.8712 20.0923C17.5647 20.0923 17.2719 20.1668 17.0199 20.309C16.7679 20.4512 16.5635 20.6679 16.3933 20.9524C16.223 21.2368 16.0936 21.5821 16.0051 21.9952C15.9165 22.4083 15.8689 22.8756 15.8689 23.4106C15.8689 23.9455 15.9165 24.4128 16.0051 24.8259C16.0936 25.239 16.223 25.5843 16.3933 25.8688C16.5635 26.1532 16.7679 26.3699 17.0199 26.5121C17.2719 26.6543 17.5511 26.7288 17.8712 26.7288C18.1913 26.7288 18.4705 26.6543 18.7225 26.5121Z" fill="#B9B9B9"/>
<path d="M23.9464 23.4241C23.6808 23.309 23.4561 23.1397 23.2585 22.9298C23.061 22.7198 22.918 22.4625 22.8159 22.1713C22.7137 21.8801 22.666 21.5551 22.666 21.2029V20.9591C22.666 20.607 22.7137 20.282 22.8159 19.9908C22.918 19.6996 23.061 19.4422 23.2585 19.2323C23.4561 19.0224 23.6808 18.8531 23.9464 18.738C24.212 18.6228 24.4981 18.5619 24.8182 18.5619H24.9817C25.3018 18.5619 25.5878 18.6228 25.8534 18.738C26.119 18.8531 26.3438 19.0224 26.5413 19.2323C26.7388 19.4422 26.8818 19.6996 26.984 19.9908C27.0862 20.282 27.1338 20.607 27.1338 20.9591V21.2029C27.1338 21.5551 27.0862 21.8801 26.984 22.1713C26.8818 22.4625 26.7388 22.7198 26.5413 22.9298C26.3438 23.1397 26.119 23.309 25.8534 23.4241C25.5878 23.5392 25.3018 23.6002 24.9817 23.6002H24.8182C24.4981 23.6002 24.212 23.5392 23.9464 23.4241ZM30.3621 18.6432H32.2418L25.0498 28.1509H23.17L30.3621 18.6432ZM24.9272 22.3C25.0566 22.3 25.1724 22.2729 25.2745 22.2187C25.3767 22.1645 25.4652 22.0901 25.5401 21.9885C25.615 21.8869 25.6695 21.7718 25.7172 21.6296C25.7649 21.4874 25.7853 21.3384 25.7853 21.1758V20.9998C25.7853 20.8305 25.7649 20.6747 25.7172 20.5325C25.6695 20.3903 25.615 20.2752 25.5401 20.1736C25.4652 20.072 25.3767 19.9975 25.2745 19.9501C25.1724 19.9027 25.0566 19.8756 24.9272 19.8756H24.8727C24.7433 19.8756 24.6275 19.9027 24.5253 19.9501C24.4232 19.9975 24.3346 20.072 24.2597 20.1736C24.1848 20.2752 24.1303 20.3903 24.0826 20.5325C24.035 20.6747 24.0145 20.8305 24.0145 20.9998V21.1758C24.0145 21.3384 24.035 21.4874 24.0826 21.6296C24.1303 21.7718 24.1848 21.8869 24.2597 21.9885C24.3346 22.0901 24.4232 22.1645 24.5253 22.2187C24.6275 22.2729 24.7433 22.3 24.8727 22.3H24.9272ZM29.5448 28.0764C29.2792 27.9545 29.0544 27.792 28.8637 27.5821C28.673 27.3721 28.5232 27.1216 28.421 26.8304C28.3189 26.5392 28.2644 26.2141 28.2644 25.862V25.6182C28.2644 25.2661 28.3189 24.941 28.421 24.6498C28.5232 24.3586 28.673 24.1013 28.8637 23.8914C29.0544 23.6815 29.2792 23.5122 29.5448 23.397C29.8104 23.2819 30.0965 23.221 30.403 23.221H30.58C30.9001 23.221 31.1862 23.2819 31.4518 23.397C31.7174 23.5122 31.9422 23.6815 32.1397 23.8914C32.3372 24.1013 32.4802 24.3586 32.5824 24.6498C32.6845 24.941 32.7322 25.2661 32.7322 25.6182V25.862C32.7322 26.2141 32.6845 26.5392 32.5824 26.8304C32.4802 27.1216 32.3372 27.3721 32.1397 27.5821C31.9422 27.792 31.7174 27.9545 31.4518 28.0764C31.1862 28.1983 30.9001 28.2593 30.58 28.2593H30.403C30.0965 28.2593 29.8104 28.1983 29.5448 28.0764ZM30.5119 26.9591C30.6413 26.9591 30.7571 26.932 30.8593 26.8846C30.9614 26.8372 31.0568 26.7627 31.1385 26.6611C31.2202 26.5595 31.2815 26.4376 31.3224 26.2954C31.3633 26.1532 31.3837 25.9907 31.3837 25.8214V25.6589C31.3837 25.4963 31.3633 25.3406 31.3224 25.1984C31.2815 25.0562 31.2202 24.9343 31.1385 24.8327C31.0568 24.7311 30.9614 24.6566 30.8593 24.6092C30.7571 24.5618 30.6413 24.5347 30.5119 24.5347H30.4711C30.3553 24.5347 30.2395 24.5618 30.1373 24.6092C30.0352 24.6566 29.9398 24.7311 29.8649 24.8327C29.79 24.9343 29.7287 25.0562 29.6878 25.1984C29.647 25.3406 29.6265 25.4963 29.6265 25.6589V25.8214C29.6265 25.9907 29.647 26.1532 29.6878 26.2954C29.7287 26.4376 29.79 26.5595 29.8649 26.6611C29.9398 26.7627 30.0352 26.8372 30.1373 26.8846C30.2395 26.932 30.3553 26.9591 30.4711 26.9591H30.5119Z" fill="#B9B9B9"/>
<path d="M40.0741 27.9545C39.5225 27.7243 39.0457 27.3992 38.6575 26.9794C38.2693 26.5595 37.9628 26.0584 37.7449 25.476C37.5269 24.8936 37.418 24.2503 37.418 23.546V23.2751C37.418 22.5776 37.5269 21.9411 37.7517 21.3587C37.9764 20.7763 38.2829 20.2752 38.6779 19.8553C39.073 19.4354 39.5429 19.1104 40.0946 18.8734C40.6462 18.6364 41.2388 18.5212 41.8858 18.5212H41.9948C42.3693 18.5212 42.7303 18.5686 43.0845 18.6634C43.4386 18.7583 43.7723 18.8869 44.0856 19.0562C44.3989 19.2255 44.6918 19.4354 44.9574 19.686C45.223 19.9366 45.4478 20.221 45.6317 20.5393L44.2831 21.5144C44.038 21.081 43.7315 20.7357 43.3569 20.4851C42.9823 20.2345 42.5464 20.1059 42.0356 20.1059H41.913C41.5248 20.1059 41.1638 20.1804 40.8369 20.3361C40.51 20.4919 40.2308 20.7018 39.9992 20.9727C39.7677 21.2435 39.5838 21.5754 39.4544 21.9614C39.325 22.3474 39.2569 22.7875 39.2569 23.2751V23.546C39.2569 24.0268 39.325 24.4602 39.4544 24.8462C39.5838 25.2322 39.7677 25.564 40.006 25.8349C40.2444 26.1058 40.5236 26.3157 40.8437 26.4715C41.1638 26.6272 41.5316 26.7017 41.9403 26.7017H42.0765C42.3217 26.7017 42.56 26.6678 42.7848 26.6001C43.0095 26.5324 43.2207 26.4376 43.4046 26.3225C43.5885 26.2074 43.7587 26.0584 43.9154 25.8823C44.072 25.7062 44.2082 25.5099 44.3376 25.2931L45.6589 26.2683C45.4682 26.5934 45.2434 26.8778 44.9915 27.1283C44.7395 27.3789 44.4534 27.5888 44.1401 27.7649C43.8268 27.941 43.4931 28.0764 43.1389 28.1644C42.7848 28.2525 42.4102 28.2999 42.022 28.2999H41.9266C41.2456 28.2999 40.6258 28.1848 40.0741 27.9545Z" fill="#B9B9B9"/>
<path d="M46.3263 23.2751C46.3263 22.5505 46.4353 21.9004 46.6532 21.318C46.8712 20.7356 47.1776 20.2345 47.5795 19.8147C47.9813 19.3948 48.458 19.0698 49.0165 18.8463C49.575 18.6228 50.188 18.5077 50.8486 18.5077H51.0121C51.6727 18.5077 52.2857 18.6228 52.8373 18.8463C53.389 19.0698 53.8657 19.3948 54.2676 19.8214C54.6694 20.2481 54.9759 20.7492 55.2006 21.3316C55.4254 21.914 55.5343 22.5641 55.5343 23.2751V23.546C55.5343 24.257 55.4254 24.9071 55.2006 25.4895C54.9759 26.0719 54.6694 26.573 54.2676 26.9997C53.8657 27.4263 53.389 27.7513 52.8373 27.9748C52.2857 28.1983 51.6727 28.3134 51.0121 28.3134H50.835C50.1811 28.3134 49.575 28.1983 49.0233 27.9748C48.4717 27.7513 47.9949 27.4263 47.5931 26.9997C47.1913 26.573 46.8848 26.0719 46.66 25.4895C46.4353 24.9071 46.3263 24.257 46.3263 23.546V23.2751ZM48.3763 24.8665C48.5193 25.2593 48.7032 25.5911 48.9416 25.8688C49.18 26.1464 49.4592 26.3563 49.7861 26.5053C50.113 26.6543 50.474 26.7288 50.8622 26.7288H50.9984C51.3866 26.7288 51.7476 26.6543 52.0745 26.5053C52.4014 26.3563 52.6807 26.1464 52.919 25.8688C53.1574 25.5911 53.3413 25.2593 53.4707 24.8665C53.6001 24.4737 53.6682 24.0336 53.6682 23.546V23.2751C53.6682 22.7875 53.6001 22.3474 53.4707 21.9546C53.3413 21.5618 53.1574 21.23 52.919 20.9591C52.6807 20.6882 52.4014 20.4783 52.0745 20.3226C51.7476 20.1668 51.3866 20.0923 50.9984 20.0923H50.8622C50.474 20.0923 50.113 20.1668 49.7861 20.3226C49.4592 20.4783 49.1732 20.6882 48.9348 20.9591C48.6964 21.23 48.5057 21.5618 48.3695 21.9546C48.2333 22.3474 48.1652 22.7875 48.1652 23.2751V23.546C48.1652 24.0336 48.2333 24.4737 48.3763 24.8665Z" fill="#B9B9B9"/>
<path d="M58.4085 20.2412H55.943V18.6702H62.6447V20.2412H60.1792V28.1508H58.4085V20.2412Z" fill="#B9B9B9"/>
<path d="M63.0533 23.2751C63.0533 22.5505 63.1623 21.9004 63.3803 21.318C63.5982 20.7356 63.9047 20.2345 64.3065 19.8147C64.7083 19.3948 65.1851 19.0698 65.7436 18.8463C66.302 18.6228 66.915 18.5077 67.5756 18.5077H67.7391C68.3997 18.5077 69.0127 18.6228 69.5644 18.8463C70.116 19.0698 70.5928 19.3948 70.9946 19.8214C71.3964 20.2481 71.7029 20.7492 71.9277 21.3316C72.1524 21.914 72.2614 22.5641 72.2614 23.2751V23.546C72.2614 24.257 72.1524 24.9071 71.9277 25.4895C71.7029 26.0719 71.3964 26.573 70.9946 26.9997C70.5928 27.4263 70.116 27.7513 69.5644 27.9748C69.0127 28.1983 68.3997 28.3134 67.7391 28.3134H67.562C66.9082 28.3134 66.302 28.1983 65.7504 27.9748C65.1987 27.7513 64.722 27.4263 64.3201 26.9997C63.9183 26.573 63.6118 26.0719 63.3871 25.4895C63.1623 24.9071 63.0533 24.257 63.0533 23.546V23.2751ZM65.1034 24.8665C65.2464 25.2593 65.4303 25.5911 65.6686 25.8688C65.907 26.1464 66.1863 26.3563 66.5132 26.5053C66.8401 26.6543 67.2011 26.7288 67.5893 26.7288H67.7255C68.1137 26.7288 68.4746 26.6543 68.8016 26.5053C69.1285 26.3563 69.4077 26.1464 69.6461 25.8688C69.8845 25.5911 70.0684 25.2593 70.1978 24.8665C70.3272 24.4737 70.3953 24.0336 70.3953 23.546V23.2751C70.3953 22.7875 70.3272 22.3474 70.1978 21.9546C70.0684 21.5618 69.8845 21.23 69.6461 20.9591C69.4077 20.6882 69.1285 20.4783 68.8016 20.3226C68.4746 20.1668 68.1137 20.0923 67.7255 20.0923H67.5893C67.2011 20.0923 66.8401 20.1668 66.5132 20.3226C66.1863 20.4783 65.9002 20.6882 65.6618 20.9591C65.4235 21.23 65.2328 21.5618 65.0966 21.9546C64.9603 22.3474 64.8922 22.7875 64.8922 23.2751V23.546C64.8922 24.0336 64.9603 24.4737 65.1034 24.8665Z" fill="#B9B9B9"/>
<path d="M73.9232 18.6702H75.9937L79.6578 25.2931H79.7123V18.6702H81.4422V28.1508H79.6442L75.7485 21.0945H75.6668V28.1508H73.9232V18.6702Z" fill="#B9B9B9"/>
<path d="M41.1093 0C37.8266 0 35.1636 2.64782 35.1636 5.91865C35.1636 9.18948 37.8266 11.8305 41.1093 11.8305C44.3921 11.8305 47.055 9.18271 47.055 5.91865C47.055 2.65459 44.3921 0 41.1093 0ZM44.1469 4.21213L41.0821 8.59355C40.9867 8.72899 40.8369 8.81026 40.6734 8.8238C40.6598 8.8238 40.6462 8.8238 40.6326 8.8238C40.4827 8.8238 40.3397 8.75608 40.2375 8.64773L38.4055 6.69742C38.2011 6.48072 38.2148 6.12858 38.4395 5.92542C38.6575 5.72226 39.0048 5.73581 39.2091 5.95928L40.5781 7.41524L43.2615 3.58234C43.4318 3.33178 43.7791 3.27083 44.0243 3.4469C44.2695 3.6162 44.3308 3.96157 44.1605 4.20536L44.1469 4.21213Z" fill="#B9B9B9"/>
<path d="M114.638 28.0696C114.168 27.9071 113.773 27.6768 113.452 27.3721C113.132 27.0673 112.887 26.6949 112.717 26.2479C112.547 25.801 112.465 25.2863 112.465 24.7107V18.6702H114.249V24.6024C114.249 24.9342 114.297 25.2321 114.386 25.4963C114.474 25.7604 114.61 25.9771 114.781 26.1531C114.951 26.3292 115.162 26.4579 115.407 26.5459C115.652 26.6339 115.925 26.6746 116.224 26.6746C116.524 26.6746 116.796 26.6339 117.035 26.5459C117.273 26.4579 117.484 26.3292 117.655 26.1531C117.825 25.9771 117.954 25.7604 118.043 25.4963C118.131 25.2321 118.172 24.9342 118.172 24.6024V18.6702H119.957V24.7107C119.957 25.2999 119.875 25.8145 119.705 26.2683C119.534 26.722 119.289 27.0944 118.969 27.3924C118.649 27.6904 118.254 27.9206 117.791 28.0763C117.328 28.2321 116.803 28.3134 116.224 28.3134C115.645 28.3134 115.107 28.2321 114.638 28.0696Z" fill="#B9B9B9"/>
<path d="M122.095 18.6702H124.166L127.83 25.2931H127.884V18.6702H129.614V28.1508H127.816L123.92 21.0945H123.839V28.1508H122.095V18.6702Z" fill="#B9B9B9"/>
<path d="M131.862 18.6702H133.646V28.1508H131.862V18.6702Z" fill="#B9B9B9"/>
<path d="M137.794 28.2118C137.46 28.1509 137.14 28.0696 136.827 27.9545C136.513 27.8394 136.214 27.7039 135.935 27.5346C135.655 27.3653 135.397 27.1825 135.158 26.9861L136.139 25.5776C136.33 25.7604 136.534 25.9162 136.752 26.0516C136.97 26.187 137.201 26.3022 137.44 26.3902C137.678 26.4782 137.923 26.5459 138.175 26.5934C138.427 26.6408 138.659 26.6611 138.877 26.6611C139.142 26.6611 139.367 26.634 139.558 26.5866C139.749 26.5392 139.912 26.4647 140.041 26.3767C140.171 26.2886 140.273 26.1735 140.334 26.0313C140.396 25.8891 140.43 25.7333 140.43 25.5505C140.43 25.2796 140.355 25.0629 140.212 24.9004C140.069 24.7378 139.864 24.5956 139.606 24.4737C139.347 24.3518 139.04 24.2435 138.679 24.1419C138.318 24.0403 137.93 23.9184 137.501 23.7627C137.222 23.6611 136.956 23.546 136.704 23.4106C136.452 23.2751 136.234 23.1058 136.05 22.9027C135.866 22.6995 135.717 22.4625 135.608 22.1848C135.499 21.9072 135.444 21.5754 135.444 21.1894C135.444 20.8034 135.519 20.4309 135.676 20.0991C135.832 19.7673 136.044 19.4896 136.316 19.2526C136.588 19.0156 136.915 18.8327 137.304 18.7041C137.692 18.5754 138.107 18.5077 138.55 18.5077C139.197 18.5077 139.796 18.6093 140.355 18.8192C140.913 19.0291 141.431 19.3135 141.901 19.686L140.92 21.081C140.593 20.7627 140.212 20.5325 139.776 20.3767C139.34 20.221 138.931 20.1465 138.55 20.1465C138.332 20.1465 138.134 20.1736 137.964 20.221C137.794 20.2684 137.644 20.3429 137.528 20.4377C137.412 20.5325 137.324 20.6408 137.269 20.7695C137.215 20.8982 137.188 21.0336 137.188 21.1894C137.188 21.4128 137.242 21.6025 137.358 21.7447C137.474 21.8869 137.63 22.0155 137.842 22.1171C138.053 22.2187 138.298 22.3135 138.577 22.4015C138.856 22.4896 139.156 22.5776 139.476 22.6656C139.81 22.7672 140.144 22.8823 140.477 23.0178C140.811 23.1532 141.104 23.3293 141.369 23.5392C141.635 23.7491 141.846 24.0133 142.003 24.318C142.16 24.6227 142.241 25.002 142.241 25.4557C142.241 25.9094 142.16 26.2818 141.996 26.6272C141.833 26.9726 141.601 27.2705 141.308 27.5211C141.015 27.7717 140.654 27.9613 140.232 28.0967C139.81 28.2322 139.333 28.2999 138.795 28.2999C138.461 28.2999 138.128 28.2728 137.794 28.2118Z" fill="#B9B9B9"/>
<path d="M143.767 18.6702H149.379V20.2412H145.551V22.5979H149.106V24.1012H145.551V26.5798H149.515V28.1508H143.767V18.6702Z" fill="#B9B9B9"/>
<path d="M153.261 23.2751V23.2073L150.578 18.6702H152.621L154.432 21.9749H154.541L156.38 18.6702H158.383L155.699 23.2073V23.2615L158.573 28.1508H156.53L154.541 24.4534H154.432L152.457 28.1508H150.387L153.261 23.2751Z" fill="#B9B9B9"/>
<path d="M159.826 18.6702H165.438V20.2412H161.611V22.5979H165.166V24.1012H161.611V26.5798H165.575V28.1508H159.826V18.6702Z" fill="#B9B9B9"/>
<path d="M138.89 0C135.608 0 132.945 2.64782 132.945 5.91865C132.945 9.18948 135.608 11.8305 138.89 11.8305C142.173 11.8305 144.836 9.18271 144.836 5.91865C144.836 2.65459 142.173 0 138.89 0ZM141.928 4.21213L138.863 8.59355C138.768 8.72899 138.618 8.81026 138.454 8.8238C138.441 8.8238 138.427 8.8238 138.414 8.8238C138.264 8.8238 138.121 8.75608 138.019 8.64773L136.187 6.69742C135.982 6.48072 135.996 6.12858 136.221 5.92542C136.439 5.72226 136.786 5.73581 136.99 5.95928L138.359 7.41524L141.043 3.58234C141.213 3.33178 141.56 3.27083 141.805 3.4469C142.051 3.6162 142.112 3.96157 141.942 4.20536L141.928 4.21213Z" fill="#B9B9B9"/>
<path d="M195.644 27.0336C196.236 26.6747 196.802 26.2751 197.34 25.8417C197.878 25.4083 198.355 24.9817 198.763 24.5686C199.008 24.318 199.226 24.0607 199.424 23.8101C199.621 23.5596 199.785 23.3158 199.914 23.0788C200.044 22.8418 200.146 22.6115 200.207 22.3745C200.268 22.1375 200.302 21.914 200.302 21.6973C200.302 21.4806 200.268 21.2978 200.207 21.1217C200.146 20.9456 200.05 20.7966 199.928 20.6815C199.805 20.5664 199.662 20.4716 199.492 20.3971C199.322 20.3226 199.131 20.2887 198.913 20.2887C198.695 20.2887 198.498 20.3294 198.314 20.4039C198.13 20.4784 197.966 20.5935 197.823 20.7425C197.68 20.8914 197.551 21.0811 197.449 21.3045C197.347 21.528 197.265 21.7989 197.21 22.1036L195.562 21.7379C195.623 21.2774 195.753 20.8576 195.95 20.4851C196.148 20.1127 196.386 19.7944 196.679 19.5371C196.972 19.2797 197.306 19.0833 197.687 18.9411C198.068 18.7989 198.477 18.7312 198.913 18.7312C199.349 18.7312 199.771 18.7989 200.159 18.9344C200.548 19.0698 200.874 19.2594 201.154 19.51C201.433 19.7605 201.651 20.0585 201.814 20.4106C201.978 20.7628 202.06 21.1623 202.06 21.6025C202.06 21.9208 202.019 22.2323 201.93 22.5506C201.842 22.8688 201.712 23.1803 201.542 23.4986C201.372 23.8169 201.154 24.1284 200.902 24.4467C200.65 24.765 200.357 25.0833 200.03 25.4083C199.901 25.5437 199.771 25.6724 199.628 25.7943C199.485 25.9162 199.342 26.0381 199.185 26.1532C199.029 26.2683 198.879 26.3902 198.722 26.5054C198.566 26.6205 198.409 26.7356 198.246 26.844H202.277V28.3744H195.644V27.0336Z" fill="#B9B9B9"/>
<path d="M203.081 27.0336C203.674 26.6747 204.239 26.2751 204.777 25.8417C205.315 25.4083 205.792 24.9817 206.2 24.5686C206.446 24.318 206.664 24.0607 206.861 23.8101C207.059 23.5596 207.222 23.3158 207.351 23.0788C207.481 22.8418 207.583 22.6115 207.644 22.3745C207.706 22.1375 207.74 21.914 207.74 21.6973C207.74 21.4806 207.706 21.2978 207.644 21.1217C207.583 20.9456 207.488 20.7966 207.365 20.6815C207.242 20.5664 207.099 20.4716 206.929 20.3971C206.759 20.3226 206.568 20.2887 206.35 20.2887C206.132 20.2887 205.935 20.3294 205.751 20.4039C205.567 20.4784 205.404 20.5935 205.261 20.7425C205.118 20.8914 204.988 21.0811 204.886 21.3045C204.784 21.528 204.702 21.7989 204.648 22.1036L202.999 21.7379C203.061 21.2774 203.19 20.8576 203.388 20.4851C203.585 20.1127 203.823 19.7944 204.116 19.5371C204.409 19.2797 204.743 19.0833 205.124 18.9411C205.506 18.7989 205.914 18.7312 206.35 18.7312C206.786 18.7312 207.208 18.7989 207.597 18.9344C207.985 19.0698 208.312 19.2594 208.591 19.51C208.87 19.7605 209.088 20.0585 209.252 20.4106C209.415 20.7628 209.497 21.1623 209.497 21.6025C209.497 21.9208 209.456 22.2323 209.367 22.5506C209.279 22.8688 209.149 23.1803 208.979 23.4986C208.809 23.8169 208.591 24.1284 208.339 24.4467C208.087 24.765 207.794 25.0833 207.467 25.4083C207.338 25.5437 207.208 25.6724 207.065 25.7943C206.922 25.9162 206.779 26.0381 206.623 26.1532C206.466 26.2683 206.316 26.3902 206.16 26.5054C206.003 26.6205 205.846 26.7356 205.683 26.844H209.715V28.3744H203.081V27.0336Z" fill="#B9B9B9"/>
<path d="M212.8 28.1848C212.344 27.9613 211.949 27.6363 211.622 27.2096C211.295 26.783 211.043 26.2683 210.866 25.6656C210.689 25.0629 210.6 24.3858 210.6 23.6341C210.6 22.8824 210.689 22.2052 210.866 21.6025C211.043 20.9998 211.295 20.4851 211.622 20.0585C211.949 19.6319 212.344 19.3068 212.8 19.0833C213.256 18.8599 213.781 18.7448 214.36 18.7448C214.938 18.7448 215.463 18.8599 215.919 19.0833C216.376 19.3068 216.771 19.6319 217.098 20.0585C217.424 20.4851 217.676 20.9998 217.853 21.6025C218.031 22.2052 218.119 22.8824 218.119 23.6341C218.119 24.3858 218.031 25.0562 217.853 25.6589C217.676 26.2616 217.424 26.7695 217.104 27.1961C216.784 27.6227 216.389 27.9478 215.926 28.178C215.463 28.4083 214.938 28.5234 214.36 28.5234C213.781 28.5234 213.256 28.4083 212.8 28.1848ZM215.211 26.7356C215.463 26.5934 215.667 26.3767 215.838 26.0923C216.008 25.8079 216.137 25.4557 216.226 25.0426C216.314 24.6295 216.362 24.1555 216.362 23.6341C216.362 23.1126 216.314 22.6318 216.226 22.2187C216.137 21.8057 216.001 21.4603 215.831 21.1759C215.66 20.8914 215.449 20.6747 215.197 20.5325C214.945 20.3903 214.666 20.3158 214.36 20.3158C214.053 20.3158 213.76 20.3903 213.508 20.5325C213.256 20.6747 213.052 20.8914 212.882 21.1759C212.711 21.4603 212.582 21.8057 212.493 22.2187C212.405 22.6318 212.357 23.0991 212.357 23.6341C212.357 24.1691 212.405 24.6363 212.493 25.0494C212.582 25.4625 212.711 25.8079 212.882 26.0923C213.052 26.3767 213.256 26.5934 213.508 26.7356C213.76 26.8778 214.039 26.9523 214.36 26.9523C214.68 26.9523 214.959 26.8778 215.211 26.7356Z" fill="#B9B9B9"/>
<path d="M219.113 23.6881C219.113 23.3292 219.188 22.9974 219.338 22.6927C219.488 22.3879 219.692 22.1306 219.958 21.9071C220.224 21.6837 220.537 21.5144 220.905 21.3857C221.272 21.257 221.674 21.1961 222.11 21.1961H222.451C222.887 21.1961 223.288 21.257 223.649 21.3857C224.01 21.5144 224.33 21.6904 224.596 21.9139C224.862 22.1374 225.073 22.4015 225.223 22.7062C225.372 23.011 225.447 23.3428 225.447 23.7017V23.8642C225.447 24.2231 225.372 24.5617 225.223 24.8665C225.073 25.1712 224.862 25.4353 224.596 25.6588C224.33 25.8822 224.01 26.0515 223.643 26.1734C223.275 26.2953 222.88 26.3563 222.451 26.3563H222.301C222.212 26.3563 222.124 26.3563 222.049 26.3563C221.974 26.3563 221.899 26.3427 221.838 26.3224V27.0538C221.94 27.047 222.035 27.0402 222.131 27.0402H222.641C223.098 27.0402 223.513 27.0876 223.895 27.1825C224.276 27.2773 224.603 27.4127 224.875 27.5888C225.148 27.7648 225.359 27.9815 225.509 28.2321C225.659 28.4827 225.733 28.7603 225.733 29.0583V29.1802C225.733 29.4849 225.659 29.7625 225.502 30.0131C225.345 30.2637 225.134 30.4736 224.855 30.6497C224.576 30.8257 224.249 30.9612 223.874 31.0628C223.5 31.1643 223.077 31.2117 222.614 31.2117H222.165C221.708 31.2117 221.293 31.1643 220.911 31.0695C220.53 30.9747 220.203 30.8393 219.924 30.6632C219.645 30.4871 219.434 30.2772 219.277 30.0267C219.12 29.7761 219.045 29.4984 219.045 29.1802V29.0176C219.045 28.6181 219.175 28.2727 219.427 27.968C219.679 27.6633 220.033 27.4262 220.476 27.2569V25.9974C220.047 25.7874 219.713 25.503 219.474 25.1306C219.236 24.7581 219.113 24.3382 219.113 23.8574V23.6949V23.6881ZM220.748 29.1057C220.748 29.3562 220.877 29.5594 221.129 29.7151C221.381 29.8709 221.749 29.9454 222.233 29.9454H222.573C223.043 29.9454 223.418 29.8641 223.683 29.7084C223.949 29.5526 224.085 29.3495 224.085 29.1057V28.9838C224.085 28.7332 223.949 28.5301 223.683 28.3743C223.418 28.2186 223.043 28.1441 222.573 28.1441H222.233C221.763 28.1441 221.395 28.2253 221.136 28.3811C220.877 28.5368 220.748 28.74 220.748 28.9838V29.1057ZM220.789 23.9184C220.789 24.1012 220.823 24.2638 220.898 24.4195C220.973 24.5753 221.068 24.7039 221.198 24.8055C221.327 24.9071 221.477 24.9951 221.647 25.0561C221.817 25.117 222.001 25.1509 222.192 25.1509H222.369C222.566 25.1509 222.75 25.117 222.921 25.0561C223.091 24.9951 223.234 24.9071 223.363 24.8055C223.493 24.7039 223.595 24.5753 223.67 24.4195C223.745 24.2638 223.786 24.1012 223.786 23.9184V23.7152C223.786 23.5324 223.745 23.3699 223.67 23.2209C223.595 23.0719 223.493 22.9432 223.363 22.8349C223.234 22.7265 223.091 22.6453 222.921 22.5843C222.75 22.5234 222.573 22.4963 222.383 22.4963H222.192C222.001 22.4963 221.817 22.5234 221.647 22.5843C221.477 22.6453 221.327 22.7265 221.198 22.8349C221.068 22.9432 220.973 23.0719 220.898 23.2209C220.823 23.3699 220.789 23.5324 220.789 23.7152V23.9184ZM224.753 22.2796L223.649 21.5889C223.724 21.3518 223.799 21.1419 223.888 20.9523C223.976 20.7627 224.072 20.5934 224.181 20.4512H225.679L224.753 22.2796Z" fill="#B9B9B9"/>
<path d="M228.539 18.6228H230.174L227.954 29.8777H226.333L228.539 18.6228Z" fill="#B9B9B9"/>
<path d="M231.414 21.3316H232.735C232.783 21.4399 232.823 21.5822 232.857 21.7582C232.891 21.9343 232.919 22.0901 232.939 22.2255C233.212 21.9072 233.532 21.6566 233.899 21.4738C234.267 21.291 234.669 21.1962 235.105 21.1962H235.187C235.67 21.1962 236.072 21.2977 236.399 21.4941C236.726 21.6905 236.978 21.9885 237.148 22.3745C237.421 22.002 237.754 21.7108 238.149 21.5009C238.544 21.291 238.98 21.1826 239.45 21.1826H239.518C240.233 21.1826 240.785 21.4061 241.166 21.853C241.548 22.3 241.739 22.9501 241.739 23.7966V28.3744H240.05V24.081C240.05 23.8372 240.029 23.6205 239.981 23.4377C239.934 23.2548 239.866 23.1058 239.777 22.9907C239.689 22.8756 239.573 22.7943 239.43 22.7334C239.287 22.6724 239.123 22.6453 238.933 22.6453H238.878C238.653 22.6453 238.449 22.686 238.272 22.7605C238.095 22.835 237.945 22.9501 237.816 23.0923C237.686 23.2345 237.591 23.4173 237.516 23.6273C237.441 23.8372 237.407 24.0878 237.407 24.3654V28.3744H235.732V24.081C235.732 23.844 235.704 23.634 235.657 23.4512C235.609 23.2684 235.534 23.1194 235.446 23.0043C235.357 22.8891 235.241 22.8079 235.098 22.7469C234.955 22.686 234.785 22.6589 234.587 22.6589H234.546C234.322 22.6589 234.117 22.6995 233.94 22.774C233.763 22.8485 233.613 22.9569 233.484 23.0991C233.355 23.2413 233.259 23.4173 233.191 23.6273C233.123 23.8372 233.089 24.0878 233.089 24.3654V28.3744H231.414V21.3316Z" fill="#B9B9B9"/>
<path d="M243.625 24.0065C243.223 23.783 242.93 23.4715 242.74 23.0652L243.775 22.4557C243.877 22.6792 244.034 22.8552 244.245 22.9839C244.456 23.1126 244.701 23.1735 244.974 23.1735C245.246 23.1735 245.484 23.1058 245.662 22.9704C245.839 22.8349 245.927 22.6521 245.927 22.4286C245.927 22.2051 245.839 22.0223 245.668 21.8869C245.498 21.7514 245.267 21.6837 244.987 21.6837C244.851 21.6837 244.715 21.6972 244.585 21.7311C244.456 21.765 244.333 21.8056 244.224 21.8598L243.734 21.2232L245.164 20.0178H243.094V18.8937H246.826V19.8147L245.655 20.8575C245.655 20.8575 245.655 20.844 245.668 20.844C246.125 20.8982 246.492 21.0742 246.778 21.3722C247.065 21.6702 247.208 22.0562 247.208 22.5234C247.208 23.0719 247.01 23.5121 246.615 23.8439C246.22 24.1758 245.689 24.3383 245.028 24.3383C244.49 24.3383 244.027 24.2299 243.625 24.0065Z" fill="#B9B9B9"/>
<path d="M221.327 0C218.044 0 215.381 2.64782 215.381 5.91865C215.381 9.18948 218.044 11.8305 221.327 11.8305C224.61 11.8305 227.273 9.18271 227.273 5.91865C227.273 2.65459 224.61 0 221.327 0ZM224.365 4.21213L221.3 8.59355C221.204 8.72899 221.055 8.81026 220.891 8.8238C220.877 8.8238 220.864 8.8238 220.85 8.8238C220.7 8.8238 220.557 8.75608 220.455 8.64773L218.623 6.69742C218.419 6.48072 218.432 6.12858 218.657 5.92542C218.875 5.72226 219.222 5.73581 219.427 5.95928L220.796 7.41524L223.479 3.58234C223.649 3.33178 223.997 3.27083 224.242 3.4469C224.487 3.6162 224.548 3.96157 224.378 4.20536L224.365 4.21213Z" fill="#B9B9B9"/>
<path d="M276.405 18.8937H278.298L280.491 26.5053H280.614L282.793 18.8937H284.673L281.717 28.3744H279.361L276.405 18.8937Z" fill="#B9B9B9"/>
<path d="M286.458 28.2592C286.029 28.0899 285.661 27.8529 285.354 27.5482C285.048 27.2434 284.809 26.8777 284.639 26.4511C284.469 26.0245 284.387 25.5505 284.387 25.0358V24.7649C284.387 24.2435 284.469 23.7627 284.646 23.3293C284.823 22.8959 285.055 22.5234 285.347 22.2119C285.64 21.9004 286.001 21.6566 286.424 21.4805C286.846 21.3045 287.309 21.2164 287.82 21.2164H287.983C288.446 21.2164 288.875 21.2977 289.264 21.4534C289.652 21.6092 289.992 21.8327 290.272 22.1239C290.551 22.4151 290.769 22.7537 290.919 23.1464C291.068 23.5392 291.143 23.9794 291.143 24.4669V25.3879H286.076C286.103 25.6385 286.165 25.8755 286.26 26.0922C286.355 26.3089 286.485 26.4918 286.648 26.634C286.812 26.7762 287.009 26.8913 287.234 26.9793C287.459 27.0674 287.711 27.108 287.983 27.108H288.119C288.548 27.108 288.916 27.02 289.23 26.8439C289.543 26.6678 289.802 26.4511 290.013 26.187L290.953 27.2028C290.782 27.3992 290.585 27.582 290.367 27.7446C290.149 27.9071 289.917 28.0425 289.672 28.1509C289.427 28.2592 289.168 28.3473 288.896 28.415C288.623 28.4827 288.344 28.5166 288.065 28.5166H287.874C287.357 28.5166 286.887 28.4285 286.458 28.2592ZM289.556 24.2502V24.2232C289.536 23.9591 289.488 23.7288 289.407 23.5189C289.325 23.309 289.216 23.1329 289.08 22.9839C288.944 22.8349 288.78 22.7198 288.589 22.6453C288.399 22.5708 288.188 22.5302 287.949 22.5302H287.827C287.602 22.5302 287.391 22.5708 287.193 22.6521C286.996 22.7333 286.825 22.8485 286.682 22.9907C286.539 23.1329 286.417 23.3157 286.321 23.5257C286.226 23.7356 286.158 23.9794 286.11 24.2502H289.556Z" fill="#B9B9B9"/>
<path d="M292.083 23.6881C292.083 23.3292 292.158 22.9974 292.308 22.6927C292.458 22.3879 292.662 22.1306 292.928 21.9071C293.193 21.6837 293.507 21.5144 293.874 21.3857C294.242 21.257 294.644 21.1961 295.08 21.1961H295.42C295.856 21.1961 296.258 21.257 296.619 21.3857C296.98 21.5144 297.3 21.6904 297.566 21.9139C297.831 22.1374 298.043 22.4015 298.192 22.7062C298.342 23.011 298.417 23.3428 298.417 23.7017V23.8642C298.417 24.2231 298.342 24.5617 298.192 24.8665C298.043 25.1712 297.831 25.4353 297.566 25.6588C297.3 25.8822 296.98 26.0515 296.612 26.1734C296.245 26.2953 295.85 26.3563 295.42 26.3563H295.271C295.182 26.3563 295.094 26.3563 295.019 26.3563C294.944 26.3563 294.869 26.3427 294.808 26.3224V27.0538C294.91 27.047 295.005 27.0402 295.1 27.0402H295.611C296.067 27.0402 296.483 27.0876 296.864 27.1825C297.246 27.2773 297.573 27.4127 297.845 27.5888C298.118 27.7648 298.329 27.9815 298.478 28.2321C298.628 28.4827 298.703 28.7603 298.703 29.0583V29.1802C298.703 29.4849 298.628 29.7625 298.472 30.0131C298.315 30.2637 298.104 30.4736 297.825 30.6497C297.545 30.8257 297.219 30.9612 296.844 31.0628C296.469 31.1643 296.047 31.2117 295.584 31.2117H295.134C294.678 31.2117 294.263 31.1643 293.881 31.0695C293.5 30.9747 293.173 30.8393 292.894 30.6632C292.614 30.4871 292.403 30.2772 292.247 30.0267C292.09 29.7761 292.015 29.4984 292.015 29.1802V29.0176C292.015 28.6181 292.145 28.2727 292.397 27.968C292.649 27.6633 293.003 27.4262 293.445 27.2569V25.9974C293.016 25.7874 292.683 25.503 292.444 25.1306C292.206 24.7581 292.083 24.3382 292.083 23.8574V23.6949V23.6881ZM293.718 29.1057C293.718 29.3562 293.847 29.5594 294.099 29.7151C294.351 29.8709 294.719 29.9454 295.203 29.9454H295.543C296.013 29.9454 296.388 29.8641 296.653 29.7084C296.919 29.5526 297.055 29.3495 297.055 29.1057V28.9838C297.055 28.7332 296.919 28.5301 296.653 28.3743C296.388 28.2186 296.013 28.1441 295.543 28.1441H295.203C294.733 28.1441 294.365 28.2253 294.106 28.3811C293.847 28.5368 293.718 28.74 293.718 28.9838V29.1057ZM293.765 23.9184C293.765 24.1012 293.8 24.2638 293.874 24.4195C293.949 24.5753 294.045 24.7039 294.174 24.8055C294.304 24.9071 294.453 24.9951 294.624 25.0561C294.794 25.117 294.978 25.1509 295.168 25.1509H295.346C295.543 25.1509 295.727 25.117 295.897 25.0561C296.067 24.9951 296.211 24.9071 296.34 24.8055C296.469 24.7039 296.571 24.5753 296.646 24.4195C296.721 24.2638 296.762 24.1012 296.762 23.9184V23.7152C296.762 23.5324 296.721 23.3699 296.646 23.2209C296.571 23.0719 296.469 22.9432 296.34 22.8349C296.211 22.7265 296.067 22.6453 295.897 22.5843C295.727 22.5234 295.55 22.4963 295.359 22.4963H295.168C294.978 22.4963 294.794 22.5234 294.624 22.5843C294.453 22.6453 294.304 22.7265 294.174 22.8349C294.045 22.9432 293.949 23.0719 293.874 23.2209C293.8 23.3699 293.765 23.5324 293.765 23.7152V23.9184ZM297.729 22.2796L296.626 21.5889C296.701 21.3518 296.776 21.1419 296.864 20.9523C296.953 20.7627 297.048 20.5934 297.157 20.4512H298.656L297.729 22.2796Z" fill="#B9B9B9"/>
<path d="M300.869 28.3676C300.576 28.266 300.331 28.1305 300.12 27.9477C299.909 27.7649 299.752 27.5482 299.636 27.2908C299.521 27.0335 299.466 26.7491 299.466 26.4308V26.2954C299.466 25.5369 299.793 24.9681 300.447 24.5956C301.101 24.2232 302.109 24.0335 303.471 24.0335H304.043V23.7356C304.043 23.3767 303.927 23.0922 303.702 22.8823C303.478 22.6724 303.144 22.5708 302.708 22.5708H302.626C302.279 22.5708 301.925 22.6318 301.557 22.7536C301.189 22.8755 300.835 23.0516 300.488 23.2886L299.82 22.0968C300.249 21.8191 300.712 21.5957 301.216 21.4399C301.72 21.2841 302.231 21.2029 302.749 21.2029H302.871C303.743 21.2029 304.424 21.4264 304.908 21.8733C305.391 22.3202 305.637 22.9433 305.637 23.7491V26.9319C305.637 27.1825 305.664 27.433 305.711 27.6768C305.759 27.9206 305.82 28.1576 305.895 28.3811H304.288C304.234 28.2795 304.193 28.1576 304.165 28.0087C304.138 27.8597 304.118 27.7107 304.097 27.5685C303.798 27.8664 303.45 28.0967 303.062 28.266C302.674 28.4353 302.252 28.5165 301.809 28.5165C301.475 28.5165 301.162 28.4691 300.869 28.3676ZM303.205 26.9319C303.525 26.7762 303.804 26.5662 304.043 26.2954V25.117H303.621C302.749 25.117 302.109 25.2051 301.7 25.3811C301.291 25.5572 301.087 25.8349 301.087 26.2141V26.2818C301.087 26.4173 301.114 26.5391 301.169 26.6407C301.223 26.7423 301.298 26.8371 301.393 26.9184C301.489 26.9996 301.605 27.0606 301.741 27.1012C301.877 27.1418 302.02 27.1622 302.177 27.1622C302.538 27.1622 302.885 27.0877 303.205 26.9319Z" fill="#B9B9B9"/>
<path d="M307.53 21.3316H308.851C308.906 21.467 308.953 21.6296 308.994 21.8192C309.035 22.0088 309.062 22.1781 309.069 22.3338C309.369 21.9817 309.73 21.7041 310.145 21.5009C310.561 21.2977 311.024 21.1962 311.521 21.1962H311.589C312.372 21.1962 312.965 21.4264 313.38 21.8869C313.796 22.3474 314 23.0043 314 23.8643V28.3744H312.311V24.2164C312.311 23.7018 312.209 23.3158 311.998 23.0517C311.787 22.7876 311.46 22.6589 311.003 22.6589H310.922C310.67 22.6589 310.438 22.7063 310.227 22.7943C310.016 22.8824 309.839 23.011 309.689 23.1736C309.539 23.3361 309.423 23.5325 309.335 23.756C309.246 23.9794 309.205 24.2368 309.205 24.5279V28.3744H307.53V21.3316Z" fill="#B9B9B9"/>
<path d="M295.577 0C292.294 0 289.631 2.64782 289.631 5.91865C289.631 9.18948 292.294 11.8305 295.577 11.8305C298.86 11.8305 301.523 9.18271 301.523 5.91865C301.523 2.65459 298.86 0 295.577 0ZM298.615 4.21213L295.55 8.59355C295.455 8.72899 295.305 8.81026 295.141 8.8238C295.128 8.8238 295.114 8.8238 295.1 8.8238C294.951 8.8238 294.808 8.75608 294.705 8.64773L292.873 6.69742C292.669 6.48072 292.683 6.12858 292.907 5.92542C293.125 5.72226 293.473 5.73581 293.677 5.95928L295.046 7.41524L297.729 3.58234C297.9 3.33178 298.247 3.27083 298.492 3.4469C298.737 3.6162 298.799 3.96157 298.628 4.20536L298.615 4.21213Z" fill="#B9B9B9"/>
</g>
<defs>
<clipPath id="clip0_0_25">
<rect width="314" height="31.205" fill="white"/>
</clipPath>
</defs>
</svg>
