<svg width="177" height="55" viewBox="0 0 177 55" fill="none" xmlns="http://www.w3.org/2000/svg">
<path d="M20.6365 18.4934C19.2265 18.4934 18.0203 18.8494 17.0178 19.5613C16.0071 20.2732 15.2084 21.3908 14.6216 22.8974C14.0266 24.404 13.6028 26.3825 13.3502 28.8163H12.6818L12.8693 19.1225H7.34338V31.7384V44.6027H13.774V33.8908C13.9044 32.1027 14.2141 30.5629 14.7113 29.2633C15.2084 27.9636 15.8686 26.9785 16.6999 26.3163C17.5313 25.654 18.5663 25.3146 19.8215 25.3146C20.2698 25.3146 20.7832 25.3808 21.3537 25.5133C21.9324 25.6457 22.5029 25.8527 23.0816 26.1507L23.3669 19.0812C22.886 18.8908 22.4051 18.7418 21.9243 18.6424C21.4515 18.5431 21.0196 18.4934 20.6365 18.4934Z" fill="white"/>
<path d="M41.8844 18.4437C40.1891 18.4437 38.7465 18.8079 37.5647 19.5364C36.3829 20.2649 35.4293 21.3741 34.7121 22.8477C33.9949 24.3294 33.4733 26.2169 33.1554 28.5265H32.3404C32.4708 27.649 32.593 26.7218 32.7234 25.7533C32.8538 24.7765 32.9761 23.7996 33.1065 22.8063C33.2369 21.8129 33.3266 20.8775 33.3918 19.9834C33.457 19.0894 33.4896 18.3195 33.4896 17.6738V10.4139H27.0101V30.3394V44.6192H33.4407V34.5281C33.5059 32.351 33.7667 30.4801 34.2312 28.899C34.6958 27.3261 35.3723 26.1175 36.2688 25.2897C37.1653 24.4619 38.233 24.048 39.48 24.048C40.9471 24.048 42.0311 24.6357 42.7157 25.803C43.4003 26.9702 43.7508 28.8245 43.7508 31.3576V44.6109H50.271V30.6788C50.271 26.5563 49.5782 23.4851 48.1845 21.4735C46.799 19.4536 44.6962 18.4437 41.8844 18.4437Z" fill="white"/>
<path d="M71.9345 37.4503C71.7226 38.005 71.4129 38.5017 70.9972 38.9404C70.5815 39.3791 70.0599 39.7268 69.4405 39.9917C68.8129 40.2483 68.0386 40.3808 67.1177 40.3808C65.0067 40.3808 63.393 39.7103 62.2764 38.3609C61.2821 37.1689 60.736 35.3974 60.6219 33.0464L77.6723 32.8311C77.8598 30.5878 77.7701 28.5927 77.387 26.8377C77.004 25.0828 76.3356 23.5844 75.3739 22.3344C74.4122 21.0844 73.1978 20.1242 71.7307 19.4619C70.2637 18.7997 68.5521 18.4603 66.596 18.4603C64.6155 18.4603 62.8551 18.8079 61.3228 19.5116C59.7905 20.2152 58.5109 21.1921 57.484 22.4586C56.4571 23.7252 55.6909 25.1987 55.1856 26.8709C54.6722 28.543 54.4195 30.356 54.4195 32.3013C54.4195 34.2467 54.6803 36.0099 55.2101 37.5911C55.7398 39.1639 56.5304 40.5381 57.5818 41.7053C58.6332 42.8725 59.9372 43.7666 61.494 44.3874C63.0425 45 64.9089 45.3146 67.0851 45.3146C68.9433 45.3146 70.5408 45.0911 71.8856 44.6358C73.2304 44.1805 74.347 43.543 75.2435 42.707C76.14 41.8791 76.8084 40.9437 77.2566 39.9089C77.7049 38.8659 77.9902 37.7483 78.1206 36.548L72.3665 35.7699C72.2849 36.3245 72.1464 36.8957 71.9345 37.4503ZM63.3278 24.6358C64.2243 23.957 65.3246 23.6093 66.6368 23.6093C67.786 23.6093 68.7803 23.8907 69.6117 24.4619C70.443 25.0331 71.0624 25.8775 71.4618 26.995C71.6818 27.6159 71.7959 28.3361 71.8285 29.1308L60.8419 29.2715C60.956 28.6589 61.0946 28.0795 61.2902 27.5497C61.7548 26.2914 62.4312 25.3146 63.3278 24.6358Z" fill="white"/>
<path d="M73.3037 8.99835H66.4412L63.23 16.0596H68.601L73.3037 8.99835Z" fill="white"/>
<path d="M93.1171 39.255C92.1228 39.255 91.3404 38.9901 90.7698 38.452C90.1912 37.9139 89.9059 37.0447 89.9059 35.8444V24.4371H96.1898V19.1225H89.9059V13.4189H86.116L85.7819 15.7616C85.6514 16.995 85.301 17.9139 84.7305 18.5182C84.1518 19.1225 83.2145 19.4702 81.9023 19.5695H80.3701V24.2964H83.6791V36.2335C83.6791 39.255 84.3311 41.5066 85.6433 42.9801C86.9555 44.4619 88.9523 45.1987 91.6419 45.1987C92.245 45.1987 92.9541 45.149 93.7528 45.0497C94.5516 44.9503 95.3992 44.7434 96.2957 44.4205V38.4272C95.8475 38.6838 95.3503 38.8907 94.8124 39.0397C94.25 39.1805 93.6958 39.255 93.1171 39.255Z" fill="white"/>
<path d="M153.503 25.8444L155.997 23.9156C156.372 23.6176 156.755 23.2865 157.146 22.9222C157.537 22.5663 157.896 22.1689 158.222 21.755C158.548 21.3328 158.8 20.8692 158.988 20.3726C159.175 19.8676 159.265 19.3047 159.265 18.6921C159.265 17.9305 159.094 17.2682 158.76 16.6971C158.425 16.1259 157.936 15.6871 157.293 15.3725C156.649 15.058 155.858 14.9007 154.929 14.9007C153.935 14.9007 153.087 15.0994 152.386 15.4967C151.685 15.8941 151.172 16.457 150.854 17.1855C150.536 17.9139 150.438 18.7749 150.552 19.7682L153.144 20.0663C153.063 19.6358 153.046 19.2467 153.095 18.899C153.144 18.5514 153.242 18.2451 153.397 17.9884C153.552 17.7235 153.755 17.5331 154.008 17.4007C154.261 17.2682 154.562 17.202 154.905 17.202C155.263 17.202 155.573 17.2682 155.817 17.4007C156.062 17.5331 156.249 17.7235 156.38 17.9802C156.51 18.2368 156.575 18.5265 156.575 18.8576C156.575 19.1474 156.526 19.4371 156.429 19.7351C156.331 20.0331 156.2 20.3146 156.029 20.5795C155.858 20.8444 155.671 21.1093 155.451 21.3576C155.231 21.606 154.978 21.8378 154.693 22.0447L150.552 25.3477V28.1788H159.395V25.9024L153.495 25.9603V25.8444H153.503Z" fill="white"/>
<path d="M166.087 26.0844C165.777 26.2169 165.418 26.2831 165.019 26.2831C164.693 26.2831 164.391 26.2334 164.098 26.1341C163.805 26.0348 163.576 25.8775 163.397 25.6705C163.226 25.4636 163.087 25.2069 162.981 24.9172C162.875 24.6192 162.843 24.2881 162.867 23.9073L160.373 24.3791C160.333 25.0248 160.414 25.596 160.618 26.101C160.813 26.606 161.099 27.0364 161.465 27.3924C161.832 27.7483 162.305 28.0132 162.875 28.1871C163.446 28.3609 164.131 28.452 164.921 28.452C166.022 28.452 166.926 28.2864 167.643 27.9636C168.361 27.6324 168.907 27.1771 169.29 26.5894C169.673 26.0016 169.86 25.3146 169.86 24.5447C169.86 23.8328 169.705 23.2119 169.404 22.6573C169.102 22.1026 168.638 21.6639 168.01 21.3245C167.383 20.9851 166.559 20.7864 165.524 20.7367V20.6209L169.127 17.5165V15.1987H160.903V17.4586L166.185 17.442V17.5414L162.664 20.6043V22.0033C163.699 21.9785 164.53 22.0447 165.174 22.202C165.81 22.3593 166.29 22.6159 166.616 22.9718C166.942 23.3278 167.097 23.8162 167.097 24.4454C167.097 24.8758 167.008 25.2318 166.828 25.505C166.641 25.745 166.396 25.952 166.087 26.0844Z" fill="white"/>
<path d="M138.449 17.2848C135.833 15.6209 131.611 14.8096 126.501 14.8096H119.899C114.854 14.8096 110.534 15.6457 107.942 17.2848C105.734 18.6921 104.169 20.4139 102.873 22.8643C101.74 25 101.235 27.26 101.235 30.1904C101.235 33.9404 102.107 36.0762 102.873 37.5083C104.177 39.9669 105.742 41.6805 107.942 43.0878C110.534 44.7351 114.862 45.5712 119.899 45.5712H126.501C131.546 45.5712 135.865 44.7351 138.449 43.0961C140.658 41.6888 142.223 39.9669 143.527 37.5083C144.293 36.0679 145.165 33.9404 145.165 30.1821C145.165 26.4404 144.293 24.3047 143.527 22.8643C142.223 20.4057 140.658 18.6838 138.449 17.2848ZM139.036 35.058C138.156 36.7219 137.194 37.7815 135.735 38.7086C134.529 39.4785 131.562 40.3974 126.493 40.3974H119.891C114.821 40.3974 111.855 39.4785 110.64 38.7086C109.189 37.7815 108.228 36.7219 107.348 35.058C106.842 34.0977 106.321 32.7732 106.321 30.1904C106.321 27.6076 106.842 26.2831 107.348 25.3229C108.228 23.659 109.181 22.5994 110.64 21.6722C111.855 20.9023 114.821 19.9835 119.891 19.9835H126.493C131.562 19.9835 134.529 20.9023 135.735 21.6722C137.194 22.5994 138.148 23.659 139.028 25.3229C139.533 26.2831 140.055 27.6159 140.055 30.1904C140.055 32.7649 139.549 34.0977 139.036 35.058Z" fill="white"/>
<path d="M153.389 42.409L155.883 40.4802C156.257 40.1822 156.641 39.851 157.032 39.4868C157.423 39.1308 157.782 38.7335 158.108 38.3196C158.434 37.8974 158.686 37.4338 158.874 36.9371C159.061 36.4322 159.151 35.8692 159.151 35.2567C159.151 34.4951 158.98 33.8328 158.645 33.2616C158.311 32.6904 157.822 32.2517 157.178 31.9371C156.535 31.6226 155.744 31.4653 154.815 31.4653C153.821 31.4653 152.973 31.6639 152.272 32.0613C151.571 32.4586 151.058 33.0216 150.74 33.75C150.422 34.4785 150.324 35.3394 150.438 36.3328L153.03 36.6308C152.948 36.2004 152.932 35.8113 152.981 35.4636C153.03 35.1159 153.128 34.8096 153.283 34.553C153.437 34.2881 153.641 34.0977 153.894 33.9653C154.147 33.8328 154.448 33.7666 154.79 33.7666C155.149 33.7666 155.459 33.8328 155.703 33.9653C155.948 34.0977 156.135 34.2881 156.266 34.5447C156.396 34.8014 156.461 35.0911 156.461 35.4222C156.461 35.712 156.412 36.0017 156.314 36.2997C156.217 36.5977 156.086 36.8792 155.915 37.1441C155.744 37.409 155.557 37.6739 155.336 37.9222C155.116 38.1706 154.864 38.4024 154.578 38.6093L150.438 41.9123V44.7434H159.281V42.4669L153.38 42.5249V42.409H153.389Z" fill="white"/>
<path d="M170.325 39.9917H168.833V31.7384H164.383C164.204 32.3675 163.984 33.005 163.731 33.6424C163.479 34.2881 163.193 34.9338 162.859 35.5877C162.533 36.2417 162.15 36.8957 161.718 37.5497C161.286 38.2036 160.797 38.8659 160.259 39.5364V42.2103H166.144V44.7268H168.833V42.2103H170.325V39.9917ZM162.818 39.9917V39.8758C163.259 39.2963 163.674 38.692 164.074 38.0546C164.473 37.4172 164.848 36.7384 165.19 36.0182C165.533 35.298 165.818 34.553 166.054 33.7748H166.152V39.9834H162.818V39.9917Z" fill="white"/>
</svg>
