<svg width="14" height="24" viewBox="0 0 14 24" fill="none" xmlns="http://www.w3.org/2000/svg">
<path d="M13.2778 13.7434V13.7346C13.0422 13.1544 12.6583 12.6178 12.1435 12.1685C11.6637 11.7366 11.0442 11.3527 10.3026 11.0124C9.59583 10.6809 8.73641 10.3668 7.73739 10.0701C7.19643 9.91306 6.72092 9.76473 6.32393 9.61204C5.96184 9.4768 5.66519 9.33721 5.43397 9.19324C5.25511 9.07545 5.11115 8.95767 5.03262 8.83115C4.97154 8.7439 4.94537 8.65229 4.94537 8.52578C4.94537 8.40799 4.96718 8.31201 5.02389 8.22039C5.08061 8.11133 5.1635 8.02408 5.28129 7.93683C5.4078 7.84086 5.5823 7.77106 5.80043 7.71871C6.04473 7.64891 6.32829 7.61837 6.6424 7.61837C7.33604 7.61837 8.02532 7.75361 8.69278 7.99791C9.11595 8.16368 9.5173 8.36 9.87067 8.57812C10.2328 8.79625 10.6559 8.87042 11.066 8.75699C11.4761 8.65665 11.8294 8.37745 12.0388 8.01099L12.558 7.07741C12.9419 6.3925 12.763 5.52871 12.1348 5.07065C11.6375 4.70856 11.0878 4.40318 10.5076 4.16761C9.96664 3.94075 9.38207 3.76625 8.7844 3.64846V3.39544C8.7844 2.78032 8.67533 2.30044 8.44848 1.93399C8.24344 1.61989 7.99042 1.38431 7.64578 1.19672C7.03939 0.865171 6.19742 0.865171 5.58666 1.19672C5.24202 1.38431 4.98899 1.61553 4.79268 1.93399C4.5571 2.30481 4.44804 2.77596 4.44804 3.39544V3.75753C4.07723 3.86659 3.72386 4.01055 3.40976 4.18069C2.8339 4.48607 2.34094 4.87434 1.93086 5.31931C1.52078 5.76429 1.19359 6.29216 0.958018 6.85929C0.713716 7.44823 0.5872 8.08516 0.5872 8.77008C0.5872 9.455 0.704992 10.0439 0.931844 10.5936C1.1587 11.1607 1.52951 11.6712 2.0312 12.1118C2.49363 12.5218 3.0913 12.897 3.80239 13.2286C4.47858 13.5427 5.3031 13.8568 6.30212 14.1622C6.77327 14.28 7.22261 14.4152 7.61524 14.5635C7.98605 14.6988 8.31324 14.8558 8.58372 15.0129C8.79748 15.1481 8.96326 15.2877 9.0636 15.436C9.14213 15.5538 9.18139 15.7196 9.18139 15.9159C9.18139 16.0337 9.15958 16.1297 9.11159 16.2126C9.04179 16.3129 8.94581 16.4001 8.81057 16.4787C8.63607 16.579 8.43103 16.6575 8.19109 16.7317C7.6894 16.8582 6.84743 16.8582 6.06218 16.7099C5.6521 16.6226 5.25075 16.5136 4.85812 16.3652C4.47422 16.2169 4.1034 16.0337 3.75876 15.8286C3.6497 15.7676 3.545 15.6934 3.44466 15.6236C3.09129 15.3793 2.65068 15.2921 2.22752 15.3793C1.80435 15.4753 1.45098 15.7239 1.22849 16.0948L0.648275 17.0676C0.238197 17.7351 0.395254 18.5989 1.00165 19.0787C1.52951 19.4975 2.10973 19.8509 2.74666 20.1345C3.35305 20.4093 4.00306 20.6318 4.6967 20.7888C4.70543 21.3647 4.82322 21.8097 5.04135 22.1587C5.23766 22.4815 5.49068 22.7171 5.83532 22.8959C6.1407 23.0617 6.48098 23.1403 6.86488 23.1403C7.24878 23.1403 7.58906 23.0617 7.89444 22.8959C8.23908 22.7171 8.49211 22.4771 8.69715 22.1587C8.90219 21.8271 9.01125 21.4127 9.03306 20.8848C9.49549 20.7888 9.93611 20.6492 10.3375 20.466C10.9918 20.1737 11.5721 19.7986 12.0694 19.3318C12.5711 18.8519 12.9637 18.2848 13.2255 17.6391C13.4785 17.0109 13.605 16.3173 13.605 15.5931C13.605 14.9169 13.4959 14.2887 13.2734 13.7303L13.2778 13.7434ZM11.8382 17.0938C11.6637 17.5344 11.3976 17.927 11.0529 18.2499C10.6734 18.6032 10.2371 18.8868 9.73979 19.1136C9.29045 19.3099 8.78003 19.4452 8.20854 19.515L7.5498 19.5848V20.7103C7.5498 21.1291 7.48 21.308 7.43201 21.3691C7.3753 21.4694 7.31423 21.5261 7.19644 21.5872C7.13536 21.6177 7.04811 21.6483 6.87361 21.6483C6.69911 21.6483 6.61622 21.6177 6.55078 21.5872C6.43299 21.5261 6.37192 21.4694 6.31521 21.3691C6.26722 21.308 6.19741 21.1248 6.19741 20.7103V19.563L5.5823 19.4539C4.7796 19.3143 4.0336 19.0831 3.36614 18.7864C2.83827 18.5509 2.35839 18.2586 1.9265 17.8529L2.51544 16.88L2.61141 16.8713C2.7292 16.9498 2.85572 17.0371 2.99096 17.1156C3.41412 17.373 3.86346 17.5955 4.34334 17.7743C4.81449 17.9488 5.29437 18.0884 5.7917 18.1844C6.79945 18.3807 7.85081 18.3807 8.58372 18.1844C8.96326 18.0884 9.29917 17.9488 9.59146 17.7743C9.92302 17.578 10.1891 17.325 10.3854 17.0196C10.5905 16.6968 10.6908 16.3347 10.6908 15.9246C10.6908 15.4229 10.5643 14.9736 10.3113 14.6028C10.0932 14.2712 9.77033 13.9877 9.36898 13.739C9.01561 13.534 8.60554 13.3376 8.15183 13.1719C7.70249 13.0061 7.20953 12.8578 6.72092 12.7313C5.83097 12.4564 5.06316 12.1641 4.44804 11.8806C3.87219 11.6144 3.39231 11.3134 3.03458 10.9906C2.70303 10.707 2.47618 10.3929 2.32785 10.0308C2.17953 9.66003 2.101 9.23687 2.101 8.77444C2.101 8.27711 2.18825 7.84522 2.35403 7.4395C2.52853 7.0207 2.75538 6.66297 3.05203 6.33142C3.34869 6.00859 3.71077 5.72503 4.1383 5.5069C4.49166 5.31059 4.90175 5.16663 5.36418 5.07501L5.96184 4.95722V3.3998C5.96184 2.97664 6.03164 2.80213 6.07963 2.73233C6.14071 2.63635 6.20614 2.57528 6.31521 2.5142C6.37628 2.48367 6.46353 2.45313 6.63803 2.45313C6.81254 2.45313 6.90415 2.48367 6.96086 2.5142C7.07865 2.57528 7.13972 2.64072 7.20516 2.73233C7.24442 2.80213 7.31422 2.97664 7.31422 3.3998V4.92669L7.95988 5.02266C8.66661 5.11863 9.3428 5.2975 9.96664 5.55925C10.4378 5.74684 10.8784 5.99114 11.2798 6.35323L10.6908 7.32171C10.2502 7.04687 9.76161 6.80257 9.24247 6.61499C8.40922 6.30088 7.53672 6.1351 6.66421 6.1351C6.22359 6.1351 5.81351 6.19182 5.44706 6.28343C5.04571 6.38377 4.70107 6.54082 4.43496 6.7415C4.13394 6.95526 3.90709 7.20392 3.74131 7.50494C3.56245 7.81904 3.4752 8.17241 3.4752 8.54322C3.4752 8.96639 3.58426 9.35466 3.81984 9.69057C4.02488 9.98722 4.30844 10.249 4.66181 10.4758C4.98464 10.6721 5.37726 10.8597 5.83532 11.0255C6.25849 11.1826 6.76454 11.3483 7.33604 11.5141C8.26525 11.7977 9.05924 12.09 9.70489 12.3779C10.3113 12.6615 10.8042 12.9668 11.1751 13.2984C11.5153 13.595 11.7553 13.9353 11.908 14.2974C12.0563 14.69 12.1348 15.1306 12.1348 15.6192C12.1348 16.1558 12.0388 16.6575 11.86 17.1069L11.8382 17.0938Z" fill="#6C6C6C"/>
</svg>
