<svg width="22" height="21" viewBox="0 0 22 21" fill="none" xmlns="http://www.w3.org/2000/svg">
<path d="M21.2394 15.0337C21.0649 15.4045 20.7901 15.7317 20.4193 16.0414C19.4203 16.8529 17.841 17.3022 15.9695 17.3022C15.8343 17.3022 15.7034 17.3022 15.5769 17.2891C15.7339 16.8485 15.8125 16.373 15.8125 15.8626H15.9128C17.492 15.8626 18.779 15.5223 19.5075 14.9203C19.7126 14.7545 19.8565 14.5887 19.9394 14.4055H19.9481C20.0616 14.1568 20.0834 13.8689 20.0179 13.4632L20.0048 13.3716C19.9918 13.2887 19.9743 13.2058 19.9438 13.1229C19.6951 12.2896 19.0102 11.4913 18.1333 10.9983C18.081 10.9678 18.0286 10.9373 17.9806 10.9154C17.8672 10.8631 17.7538 10.8108 17.6404 10.754C17.5095 10.7017 17.3742 10.6537 17.2303 10.6101L17.1605 10.597C16.3185 10.3614 15.4155 10.3919 14.6826 10.6101C14.5168 10.6537 14.3728 10.7104 14.2332 10.7628C14.1416 10.802 14.0282 10.8457 13.9278 10.9067C13.858 10.9373 13.8057 10.9678 13.7621 10.9896C13.701 11.0289 13.6399 11.0638 13.5788 11.103C13.2168 10.754 12.811 10.4443 12.3792 10.1869C12.5929 10.0211 12.811 9.86844 13.0466 9.73757C13.1077 9.6983 13.1819 9.66341 13.2604 9.62414C13.3825 9.55434 13.5352 9.49326 13.6835 9.42782C13.8886 9.34494 14.0762 9.27514 14.2812 9.22279C15.3108 8.91305 16.541 8.91741 17.5706 9.21406L17.6709 9.23588C17.8454 9.28823 18.0199 9.3493 18.1857 9.4191C18.3427 9.4889 18.4823 9.55434 18.6176 9.62414C18.6917 9.66341 18.7703 9.69831 18.8357 9.74629C20.0485 10.4225 20.9515 11.5 21.3136 12.6954C21.3529 12.8262 21.3878 12.9528 21.4139 13.088C21.4358 13.1883 21.4445 13.2407 21.4445 13.2843C21.5579 13.9125 21.4881 14.5058 21.2394 15.0293V15.0337Z" fill="#6C6C6C"/>
<path d="M15.9434 1.80212C14.2376 1.80212 12.8416 3.22867 12.8416 4.97369C12.8416 6.7187 14.2289 8.14525 15.9346 8.14525C17.6404 8.14525 19.0364 6.7187 19.0364 4.97369C19.0364 3.22867 17.6491 1.80212 15.9434 1.80212ZM15.939 6.69252C15.0272 6.69252 14.2856 5.92036 14.2856 4.96933C14.2856 4.01829 15.0272 3.24612 15.9477 3.24612C16.8682 3.24612 17.6011 4.01829 17.6011 4.96933C17.6011 5.92036 16.8595 6.69252 15.939 6.69252Z" fill="#6C6C6C"/>
<path d="M14.9443 15.1471C14.9443 15.086 14.9312 15.0337 14.9051 14.9203C14.8745 14.7545 14.8353 14.58 14.7829 14.4186C14.4732 13.3803 13.8057 12.3944 12.9245 11.6048C12.5668 11.2645 12.1741 10.9765 11.751 10.7322C11.7073 10.7017 11.6594 10.6712 11.6157 10.6494C11.5241 10.597 11.4281 10.5447 11.3365 10.4879C11.1533 10.4051 10.9788 10.3222 10.7738 10.2393C10.5556 10.1477 10.3244 10.0648 10.0932 9.99498L9.99287 9.96444C8.66666 9.5849 7.09615 9.57181 5.75249 9.97753C5.4951 10.0473 5.25079 10.1346 4.98032 10.2436C4.79273 10.3265 4.60078 10.4051 4.44809 10.4879C4.34775 10.5403 4.26051 10.5926 4.17326 10.6406C2.45878 11.6048 1.19365 13.2407 0.857733 14.9552C0.849008 15.0163 0.835912 15.086 0.835912 15.086C0.587248 16.578 0.979886 17.6643 2.10106 18.5892C3.37492 19.6362 5.41657 20.2033 7.84214 20.2033H7.92502C10.3506 20.2033 12.3923 19.6362 13.6661 18.5892C14.1373 18.2096 14.4688 17.7908 14.6913 17.3371C14.7044 17.2979 14.7219 17.2673 14.7349 17.2324C14.9313 16.7918 15.0229 16.3207 15.0011 15.8146C15.0011 15.6008 14.9792 15.374 14.94 15.1471H14.9443ZM13.3956 16.7089C13.3564 16.7918 13.3128 16.866 13.2517 16.9445C13.1295 17.1277 12.9638 17.3022 12.7587 17.4767C11.751 18.2969 9.99287 18.7637 7.92939 18.7637H7.8465C5.78303 18.7637 4.02493 18.2925 3.02154 17.4767C2.30173 16.8834 2.09669 16.3032 2.27119 15.278L2.28428 15.1951C2.52858 13.93 3.5276 12.6605 4.89307 11.897C4.95415 11.8578 5.02395 11.8229 5.1112 11.7749C5.24644 11.7051 5.39913 11.6397 5.53437 11.5786C5.72196 11.5044 5.92263 11.4346 6.14075 11.3735C6.68607 11.2078 7.26193 11.1249 7.90758 11.1249C8.47471 11.1249 9.02874 11.199 9.57406 11.3517L9.64386 11.3735C9.84018 11.4346 10.0365 11.5044 10.211 11.5698C10.3681 11.6396 10.5295 11.7138 10.6821 11.788C10.7519 11.8185 10.8174 11.8578 10.8872 11.9014C11.3191 12.1457 11.7117 12.4336 12.0607 12.7739C12.6976 13.3672 13.1688 14.0914 13.3956 14.8461C13.4349 14.9683 13.4654 15.0817 13.496 15.2475L13.5091 15.3304C13.5222 15.4002 13.5309 15.4656 13.5309 15.5267C13.5527 15.6575 13.5614 15.7753 13.5614 15.8975C13.5614 16.2072 13.5003 16.4733 13.3869 16.7089H13.3956Z" fill="#6C6C6C"/>
<path d="M7.89886 0.942719C5.72195 0.942719 3.95514 2.75317 3.95514 4.98679C3.95514 7.2204 5.73069 9.03085 7.90759 9.03085C10.0845 9.03085 11.8513 7.2204 11.8513 4.98679C11.8513 2.75317 10.0758 0.942719 7.89886 0.942719ZM7.90759 7.58686C6.52903 7.58686 5.40349 6.4177 5.40349 4.98679H5.39477C5.39477 3.55151 6.51594 2.38672 7.89886 2.38672C9.28178 2.38672 10.403 3.55588 10.403 4.98679H10.4117C10.4117 6.42206 9.29051 7.58686 7.90759 7.58686Z" fill="#6C6C6C"/>
</svg>
