<svg width="34" height="34" viewBox="0 0 34 34" fill="none" xmlns="http://www.w3.org/2000/svg">
<g clip-path="url(#clip0_10_1109)">
<path d="M16.61 10.1767L14.92 8.56665L6.95334 16.9167L14.92 25.2667L16.61 23.6567L11.2933 18.0833H26.6667V15.75H11.2933L16.61 10.1767Z" fill="#323232"/>
<path d="M17 0C7.62667 0 0 7.62667 0 17C0 26.3733 7.62667 34 17 34C26.3733 34 34 26.3733 34 17C34 7.62667 26.3733 0 17 0ZM17 31.3333C9.09667 31.3333 2.66667 24.9033 2.66667 17C2.66667 9.09667 9.09667 2.66667 17 2.66667C24.9033 2.66667 31.3333 9.09667 31.3333 17C31.3333 24.9033 24.9033 31.3333 17 31.3333Z" fill="#323232"/>
</g>
<defs>
<clipPath id="clip0_10_1109">
<rect width="34" height="34" fill="white"/>
</clipPath>
</defs>
</svg>
