<svg width="39" height="38" viewBox="0 0 39 38" fill="none" xmlns="http://www.w3.org/2000/svg">
<rect x="0.754883" width="37.7457" height="37.7457" rx="18.8728" fill="#202020"/>
<path d="M6.13528 24V22.5724L9.92256 18.8597C10.2848 18.494 10.5866 18.169 10.8281 17.8849C11.0696 17.6009 11.2507 17.3256 11.3714 17.0593C11.4922 16.793 11.5525 16.5089 11.5525 16.207C11.5525 15.8626 11.4744 15.5678 11.3182 15.3228C11.1619 15.0742 10.9471 14.8825 10.6736 14.7475C10.4002 14.6126 10.0895 14.5451 9.74145 14.5451C9.38279 14.5451 9.06851 14.6197 8.79863 14.7688C8.52874 14.9144 8.31922 15.1222 8.17008 15.392C8.02448 15.6619 7.95168 15.9833 7.95168 16.3562H6.07136C6.07136 15.6637 6.22938 15.0618 6.54543 14.5504C6.86148 14.0391 7.2965 13.6431 7.85047 13.3626C8.408 13.082 9.04721 12.9418 9.76809 12.9418C10.4996 12.9418 11.1424 13.0785 11.6964 13.3519C12.2503 13.6254 12.68 14 12.9854 14.4759C13.2944 14.9517 13.4488 15.495 13.4488 16.1058C13.4488 16.5142 13.3707 16.9155 13.2145 17.3097C13.0582 17.7038 12.783 18.1406 12.3888 18.62C11.9982 19.0994 11.4496 19.68 10.7429 20.3619L8.86255 22.2741V22.3487H13.614V24H6.13528ZM17.2095 13.0909L19.6118 17.0859H19.6971L22.1101 13.0909H24.3633L21.0021 18.5455L24.4165 24H22.126L19.6971 20.0316H19.6118L17.1829 24H14.903L18.3494 18.5455L14.9456 13.0909H17.2095ZM25.9147 24V13.0909H27.8909V22.3434H32.6956V24H25.9147Z" fill="white"/>
</svg>
