<svg width="39" height="38" viewBox="0 0 39 38" fill="none" xmlns="http://www.w3.org/2000/svg">
<rect x="0.754883" width="37.7457" height="37.7457" rx="18.8728" fill="#202020"/>
<path d="M9.82335 24.1491C9.05631 24.1491 8.37449 24.0178 7.7779 23.755C7.18486 23.4922 6.71611 23.1264 6.37165 22.6577C6.02719 22.1889 5.8443 21.6474 5.823 21.033H7.82584C7.84359 21.3278 7.94125 21.5852 8.11881 21.8054C8.29636 22.022 8.53251 22.1907 8.82726 22.3114C9.122 22.4322 9.45226 22.4925 9.81803 22.4925C10.2087 22.4925 10.5549 22.4251 10.8567 22.2901C11.1586 22.1516 11.3947 21.9599 11.5652 21.7148C11.7356 21.4698 11.8191 21.1875 11.8155 20.8679C11.8191 20.5376 11.7339 20.2464 11.5599 19.9943C11.3859 19.7422 11.1337 19.5451 10.8035 19.4031C10.4768 19.261 10.0826 19.19 9.62094 19.19H8.6568V17.6665H9.62094C10.0009 17.6665 10.3329 17.6009 10.617 17.4695C10.9047 17.3381 11.1302 17.1534 11.2935 16.9155C11.4569 16.674 11.5368 16.3952 11.5332 16.0792C11.5368 15.7702 11.4675 15.5021 11.3255 15.2749C11.187 15.044 10.9899 14.8647 10.7342 14.7369C10.4821 14.609 10.1856 14.5451 9.84466 14.5451C9.51085 14.5451 9.2019 14.6055 8.91781 14.7262C8.63372 14.8469 8.40467 15.0192 8.23067 15.2429C8.05666 15.4631 7.96433 15.7259 7.95368 16.0312H6.05205C6.06625 15.4205 6.24203 14.8842 6.57939 14.4226C6.9203 13.9574 7.37484 13.5952 7.94303 13.3359C8.51121 13.0732 9.14864 12.9418 9.85531 12.9418C10.5833 12.9418 11.2154 13.0785 11.7516 13.3519C12.2914 13.6218 12.7087 13.9858 13.0034 14.4439C13.2981 14.902 13.4455 15.408 13.4455 15.962C13.4491 16.5763 13.268 17.0913 12.9022 17.5067C12.54 17.9222 12.0641 18.1939 11.4746 18.3217V18.407C12.2417 18.5135 12.8294 18.7976 13.2378 19.2592C13.6497 19.7173 13.8539 20.2873 13.8503 20.9691C13.8503 21.5799 13.6763 22.1268 13.3283 22.6097C12.9839 23.0891 12.508 23.4656 11.9008 23.739C11.2971 24.0124 10.6046 24.1491 9.82335 24.1491ZM17.4365 13.0909L19.8389 17.0859H19.9241L22.3371 13.0909H24.5903L21.2292 18.5455L24.6436 24H22.3531L19.9241 20.0316H19.8389L17.4099 24H15.1301L18.5765 18.5455L15.1727 13.0909H17.4365ZM26.1417 24V13.0909H28.1179V22.3434H32.9226V24H26.1417Z" fill="white"/>
</svg>
