<svg width="39" height="38" viewBox="0 0 39 38" fill="none" xmlns="http://www.w3.org/2000/svg">
<g clip-path="url(#clip0_10_1448)">
<rect x="0.754883" width="37.7457" height="37.7457" rx="18.8728" fill="white"/>
<path d="M21.9534 15.9805C21.8904 15.3912 21.625 14.9324 21.1572 14.604C20.6939 14.2757 20.0912 14.1115 19.349 14.1115C18.8272 14.1115 18.3796 14.1902 18.0063 14.3477C17.6329 14.5051 17.3473 14.7187 17.1494 14.9886C16.9515 15.2585 16.8503 15.5666 16.8458 15.913C16.8458 16.2009 16.911 16.4505 17.0414 16.6619C17.1764 16.8733 17.3586 17.0533 17.588 17.2017C17.8174 17.3456 18.0715 17.4671 18.3504 17.5661C18.6293 17.665 18.9104 17.7482 19.1938 17.8157L20.4892 18.1396C21.011 18.261 21.5126 18.4252 21.9939 18.6321C22.4796 18.839 22.9137 19.0999 23.2961 19.4148C23.6829 19.7296 23.9888 20.1097 24.2137 20.555C24.4386 21.0004 24.551 21.5221 24.551 22.1204C24.551 22.93 24.3441 23.643 23.9303 24.2592C23.5165 24.871 22.9182 25.35 22.1355 25.6964C21.3574 26.0382 20.415 26.2092 19.3085 26.2092C18.2334 26.2092 17.3001 26.0427 16.5084 25.7099C15.7212 25.377 15.105 24.8912 14.6597 24.2525C14.2189 23.6138 13.9805 22.8356 13.9445 21.918H16.4072C16.4432 22.3993 16.5916 22.7996 16.8525 23.119C17.1134 23.4383 17.453 23.6767 17.8713 23.8342C18.2942 23.9916 18.7665 24.0703 19.2882 24.0703C19.8325 24.0703 20.3093 23.9893 20.7186 23.8274C21.1325 23.661 21.4563 23.4316 21.6902 23.1392C21.9241 22.8423 22.0433 22.496 22.0478 22.1001C22.0433 21.7403 21.9376 21.4434 21.7307 21.2095C21.5238 20.9711 21.2337 20.7732 20.8603 20.6158C20.4915 20.4538 20.0597 20.3099 19.5649 20.1839L17.9928 19.7791C16.8548 19.4867 15.9551 19.0437 15.2939 18.4499C14.6372 17.8517 14.3088 17.0578 14.3088 16.0682C14.3088 15.254 14.5292 14.5411 14.9701 13.9293C15.4154 13.3176 16.0204 12.843 16.785 12.5057C17.5497 12.1638 18.4156 11.9929 19.3827 11.9929C20.3633 11.9929 21.2224 12.1638 21.9601 12.5057C22.7023 12.843 23.2848 13.3131 23.7076 13.9158C24.1305 14.5141 24.3486 15.2023 24.3621 15.9805H21.9534Z" fill="black"/>
</g>
<defs>
<clipPath id="clip0_10_1448">
<rect width="38.5006" height="37.7457" fill="white"/>
</clipPath>
</defs>
</svg>
