<svg width="39" height="38" viewBox="0 0 39 38" fill="none" xmlns="http://www.w3.org/2000/svg">
<rect x="0.754883" width="37.7457" height="37.7457" rx="18.8728" fill="#202020"/>
<path d="M11.9287 13.0909L14.3311 17.0859H14.4163L16.8293 13.0909H19.0825L15.7213 18.5455L19.1358 24H16.8453L14.4163 20.0316H14.3311L11.9021 24H9.62227L13.0686 18.5455L9.66488 13.0909H11.9287ZM26.5625 16.0898C26.5128 15.6246 26.3033 15.2624 25.934 15.0032C25.5682 14.744 25.0924 14.6143 24.5064 14.6143C24.0945 14.6143 23.7411 14.6765 23.4464 14.8008C23.1517 14.9251 22.9262 15.0937 22.7699 15.3068C22.6137 15.5199 22.5338 15.7631 22.5302 16.0366C22.5302 16.2638 22.5817 16.4609 22.6847 16.6278C22.7912 16.7947 22.935 16.9368 23.1161 17.054C23.2973 17.1676 23.4979 17.2635 23.7181 17.3416C23.9382 17.4197 24.1602 17.4854 24.3839 17.5387L25.4066 17.7944C25.8186 17.8903 26.2145 18.0199 26.5945 18.1832C26.978 18.3466 27.3207 18.5526 27.6225 18.8011C27.9279 19.0497 28.1694 19.3498 28.347 19.7013C28.5245 20.0529 28.6133 20.4648 28.6133 20.9371C28.6133 21.5763 28.45 22.1392 28.1232 22.6257C27.7965 23.1087 27.3242 23.4869 26.7063 23.7603C26.092 24.0302 25.348 24.1651 24.4745 24.1651C23.6257 24.1651 22.8889 24.0337 22.2639 23.771C21.6424 23.5082 21.1559 23.1246 20.8044 22.6204C20.4563 22.1161 20.2681 21.5018 20.2397 20.7773H22.184C22.2124 21.1573 22.3296 21.4734 22.5355 21.7255C22.7415 21.9776 23.0096 22.1658 23.3399 22.2901C23.6737 22.4144 24.0465 22.4766 24.4585 22.4766C24.8882 22.4766 25.2646 22.4126 25.5877 22.2848C25.9144 22.1534 26.1701 21.9723 26.3548 21.7415C26.5394 21.5071 26.6335 21.2337 26.6371 20.9212C26.6335 20.6371 26.5501 20.4027 26.3867 20.218C26.2234 20.0298 25.9943 19.8736 25.6996 19.7493C25.4084 19.6214 25.0675 19.5078 24.6769 19.4084L23.4357 19.0888C22.5373 18.858 21.8271 18.5082 21.3051 18.0394C20.7866 17.5671 20.5274 16.9403 20.5274 16.1591C20.5274 15.5163 20.7014 14.9535 21.0494 14.4705C21.4009 13.9876 21.8786 13.6129 22.4823 13.3466C23.086 13.0767 23.7696 12.9418 24.533 12.9418C25.3072 12.9418 25.9855 13.0767 26.5678 13.3466C27.1538 13.6129 27.6137 13.984 27.9475 14.4599C28.2813 14.9322 28.4535 15.4755 28.4642 16.0898H26.5625Z" fill="white"/>
</svg>
